<svg width="100" height="80" viewBox="0 0 100 80" fill="none" xmlns="http://www.w3.org/2000/svg">
<rect width="85" height="20" rx="3" transform="matrix(1 0 0 -1 8 50)" fill="#58707F"/>
<rect x="31" y="43" width="16" height="2" rx="1" fill="white"/>
<rect x="30.8656" y="34.7537" width="12.73" height="1.70149" fill="#F1F1F1"/>
<rect x="45" y="34.7537" width="16.7313" height="1.70149" fill="#F1F1F1"/>
<rect x="30.8656" y="37.5895" width="58.1343" height="4.25373" fill="#F1F1F1"/>
<circle cx="20.6567" cy="39.8582" r="7.65671" fill="white"/>
<g clip-path="url(#clip0_1518_5)" filter="url(#filter0_d_1518_5)">
<path d="M23.5298 41.6279C23.1759 41.3914 22.7769 41.2501 22.3932 41.0749L22.1814 40.983C21.8241 40.8171 21.6913 40.4879 21.8479 40.1212C21.9474 39.8889 22.0308 39.6533 22.0733 39.404C22.0818 39.3547 22.092 39.313 22.1635 39.3189C22.2937 39.33 22.366 39.2492 22.4026 39.136C22.4689 38.9318 22.5327 38.726 22.5931 38.5201C22.6161 38.4418 22.6187 38.3593 22.6016 38.2785C22.5855 38.1968 22.5438 38.1236 22.4579 38.1185C22.3609 38.1126 22.3456 38.0683 22.3532 37.9884C22.366 37.8514 22.3694 37.7127 22.3881 37.5766C22.5166 36.6306 21.8717 35.7705 20.9274 35.6301C20.9002 35.6258 20.8746 35.6131 20.8483 35.6037H20.4824C20.4322 35.6488 20.3667 35.6327 20.308 35.6463C19.3909 35.8581 18.832 36.6757 18.9579 37.6234C18.9758 37.7561 18.9936 37.8888 18.9877 38.0232C18.9851 38.0726 18.9766 38.1066 18.9154 38.1134C18.7801 38.1287 18.7384 38.2257 18.7325 38.3457C18.7239 38.5124 18.8005 38.6605 18.8414 38.817C18.8635 38.9029 18.8992 38.9854 18.9222 39.0714C18.9613 39.2168 19.0268 39.3283 19.2004 39.3206C19.2506 39.3181 19.2591 39.3513 19.2659 39.3904C19.3152 39.6541 19.3969 39.9076 19.5075 40.1527C19.5994 40.356 19.5602 40.5568 19.4692 40.7516C19.4148 40.869 19.305 40.9149 19.1987 40.9651C18.8345 41.1344 18.4577 41.2731 18.1012 41.4586C17.9864 41.5181 17.8749 41.5862 17.7694 41.661C17.5993 41.781 17.4734 41.9375 17.4147 42.1409C17.2989 42.539 17.2522 42.944 17.3338 43.3549C17.3883 43.6297 17.5542 43.8092 17.823 43.8908C18.0927 43.9725 18.37 44.0065 18.6482 44.0346C19.0243 44.0712 19.4011 44.084 19.778 44.0959C19.818 44.0967 19.8571 44.1069 19.8971 44.1129H21.408C21.7237 44.0959 22.0402 44.0797 22.3558 44.061C22.7165 44.0397 23.0755 44.0031 23.4277 43.9189C23.808 43.827 23.9867 43.6178 24.0147 43.2307C24.0411 42.8589 24.0003 42.4931 23.9058 42.1332C23.8488 41.9129 23.7161 41.7529 23.5298 41.6279Z" fill="#58707F"/>
</g>
<defs>
<filter id="filter0_d_1518_5" x="12.4031" y="35.6045" width="16.5074" height="16.5074" filterUnits="userSpaceOnUse" color-interpolation-filters="sRGB">
<feFlood flood-opacity="0" result="BackgroundImageFix"/>
<feColorMatrix in="SourceAlpha" type="matrix" values="0 0 0 0 0 0 0 0 0 0 0 0 0 0 0 0 0 0 127 0" result="hardAlpha"/>
<feOffset dy="4"/>
<feGaussianBlur stdDeviation="2"/>
<feComposite in2="hardAlpha" operator="out"/>
<feColorMatrix type="matrix" values="0 0 0 0 0 0 0 0 0 0 0 0 0 0 0 0 0 0 0.25 0"/>
<feBlend mode="normal" in2="BackgroundImageFix" result="effect1_dropShadow_1518_5"/>
<feBlend mode="normal" in="SourceGraphic" in2="effect1_dropShadow_1518_5" result="shape"/>
</filter>
<clipPath id="clip0_1518_5">
<rect width="8.50746" height="8.50746" fill="white" transform="translate(16.4031 35.6045)"/>
</clipPath>
</defs>
</svg>
