<svg width="100" height="80" viewBox="0 0 100 80" fill="none" xmlns="http://www.w3.org/2000/svg">
<circle cx="50" cy="40" r="24" fill="white"/>
<path d="M33 39.5614C33 48.7075 40.4732 56.1229 49.6907 56.1229C52.6181 56.1229 55.3653 55.3749 57.7589 54.0625L67.0001 57.0001L63.9877 48.1125C65.5075 45.6169 66.3813 42.6895 66.3813 39.5614C66.3813 30.4154 58.9081 23 49.6907 23C40.4732 23 33 30.4154 33 39.5614ZM49.6907 25.635C57.4291 25.635 63.7225 31.8808 63.7225 39.5614C63.7225 42.6079 62.7297 45.4299 61.0501 47.7249L62.8045 52.8963L57.4121 51.1827C55.1953 52.6379 52.5399 53.4879 49.6907 53.4879C41.9522 53.4879 35.6588 47.2421 35.6588 39.5648C35.6588 31.8876 41.9522 25.635 49.6907 25.635ZM41.262 43.3763C41.364 43.2063 41.6394 43.1043 42.0474 42.9037C42.4554 42.6997 44.4683 41.7171 44.8423 41.5845C45.2197 41.4485 45.4917 41.3805 45.7637 41.7885C46.0357 42.1965 46.8211 43.1077 47.0591 43.3797C47.2971 43.6517 47.5351 43.6857 47.9465 43.4817C48.3545 43.2777 49.6737 42.8493 51.2377 41.4655C52.4549 40.3876 53.2743 39.0616 53.5123 38.6536C53.7503 38.2456 53.5361 38.0246 53.3321 37.824C53.1485 37.6404 52.9241 37.3514 52.7167 37.1134C52.5093 36.8754 52.4447 36.7054 52.3087 36.4368C52.1727 36.1682 52.2407 35.9302 52.3427 35.7262C52.4447 35.5222 53.2641 33.5264 53.6041 32.7138C53.9441 31.9012 54.2841 32.0372 54.5255 32.0372C54.7635 32.0372 55.0355 32.0032 55.3109 32.0032C55.5829 32.0032 56.0283 32.1052 56.4023 32.5098C56.7763 32.9144 57.8337 33.9004 57.8337 35.8962C57.8337 37.8954 56.3683 39.8232 56.1643 40.0952C55.9603 40.3673 53.3355 44.5969 49.1739 46.2221C45.0123 47.8473 45.0123 47.3033 44.2643 47.2387C43.5163 47.1707 41.8434 46.2561 41.5034 45.3075C41.1634 44.3589 41.1634 43.5463 41.262 43.3763Z" fill="#58707F"/>
<path d="M33 39.5614C33 48.7075 40.4732 56.1229 49.6907 56.1229C52.6181 56.1229 55.3653 55.3749 57.7589 54.0625L67.0001 57.0001L63.9877 48.1125C65.5075 45.6169 66.3813 42.6895 66.3813 39.5614C66.3813 30.4154 58.9081 23 49.6907 23C40.4732 23 33 30.4154 33 39.5614ZM49.6907 25.635C57.4291 25.635 63.7225 31.8808 63.7225 39.5614C63.7225 42.6079 62.7297 45.4299 61.0501 47.7249L62.8045 52.8963L57.4121 51.1827C55.1953 52.6379 52.5399 53.4879 49.6907 53.4879C41.9522 53.4879 35.6588 47.2421 35.6588 39.5648C35.6588 31.8876 41.9522 25.635 49.6907 25.635ZM41.262 43.3763C41.364 43.2063 41.6394 43.1043 42.0474 42.9037C42.4554 42.6997 44.4683 41.7171 44.8423 41.5845C45.2197 41.4485 45.4917 41.3805 45.7637 41.7885C46.0357 42.1965 46.8211 43.1077 47.0591 43.3797C47.2971 43.6517 47.5351 43.6857 47.9465 43.4817C48.3545 43.2777 49.6737 42.8493 51.2377 41.4655C52.4549 40.3876 53.2743 39.0616 53.5123 38.6536C53.7503 38.2456 53.5361 38.0246 53.3321 37.824C53.1485 37.6404 52.9241 37.3514 52.7167 37.1134C52.5093 36.8754 52.4447 36.7054 52.3087 36.4368C52.1727 36.1682 52.2407 35.9302 52.3427 35.7262C52.4447 35.5222 53.2641 33.5264 53.6041 32.7138C53.9441 31.9012 54.2841 32.0372 54.5255 32.0372C54.7635 32.0372 55.0355 32.0032 55.3109 32.0032C55.5829 32.0032 56.0283 32.1052 56.4023 32.5098C56.7763 32.9144 57.8337 33.9004 57.8337 35.8962C57.8337 37.8954 56.3683 39.8232 56.1643 40.0952C55.9603 40.3673 53.3355 44.5969 49.1739 46.2221C45.0123 47.8473 45.0123 47.3033 44.2643 47.2387C43.5163 47.1707 41.8434 46.2561 41.5034 45.3075C41.1634 44.3589 41.1634 43.5463 41.262 43.3763Z" fill="#58707F"/>
</svg>
