<svg width="158" height="66" viewBox="0 0 158 66" fill="none" xmlns="http://www.w3.org/2000/svg">
<rect x="7" y="14" width="146" height="36" rx="18" fill="#58707F"/>
<path d="M52.776 28.624V37H51.096V33.436H47.508V37H45.828V28.624H47.508V32.068H51.096V28.624H52.776ZM57.3816 37.108C56.7416 37.108 56.1656 36.968 55.6536 36.688C55.1416 36.4 54.7376 35.996 54.4416 35.476C54.1536 34.956 54.0096 34.356 54.0096 33.676C54.0096 32.996 54.1576 32.396 54.4536 31.876C54.7576 31.356 55.1696 30.956 55.6896 30.676C56.2096 30.388 56.7896 30.244 57.4296 30.244C58.0696 30.244 58.6496 30.388 59.1696 30.676C59.6896 30.956 60.0976 31.356 60.3936 31.876C60.6976 32.396 60.8496 32.996 60.8496 33.676C60.8496 34.356 60.6936 34.956 60.3816 35.476C60.0776 35.996 59.6616 36.4 59.1336 36.688C58.6136 36.968 58.0296 37.108 57.3816 37.108ZM57.3816 35.644C57.6856 35.644 57.9696 35.572 58.2336 35.428C58.5056 35.276 58.7216 35.052 58.8816 34.756C59.0416 34.46 59.1216 34.1 59.1216 33.676C59.1216 33.044 58.9536 32.56 58.6176 32.224C58.2896 31.88 57.8856 31.708 57.4056 31.708C56.9256 31.708 56.5216 31.88 56.1936 32.224C55.8736 32.56 55.7136 33.044 55.7136 33.676C55.7136 34.308 55.8696 34.796 56.1816 35.14C56.5016 35.476 56.9016 35.644 57.3816 35.644ZM71.2979 30.352L69.3539 37H67.5419L66.3299 32.356L65.1179 37H63.2939L61.3379 30.352H63.0419L64.2179 35.416L65.4899 30.352H67.2659L68.5139 35.404L69.6899 30.352H71.2979ZM83.3223 30.256C84.1383 30.256 84.7943 30.508 85.2903 31.012C85.7943 31.508 86.0463 32.204 86.0463 33.1V37H84.3663V33.328C84.3663 32.808 84.2343 32.412 83.9703 32.14C83.7063 31.86 83.3463 31.72 82.8903 31.72C82.4343 31.72 82.0703 31.86 81.7983 32.14C81.5343 32.412 81.4023 32.808 81.4023 33.328V37H79.7223V33.328C79.7223 32.808 79.5903 32.412 79.3263 32.14C79.0623 31.86 78.7023 31.72 78.2463 31.72C77.7823 31.72 77.4143 31.86 77.1423 32.14C76.8783 32.412 76.7463 32.808 76.7463 33.328V37H75.0663V30.352H76.7463V31.156C76.9623 30.876 77.2383 30.656 77.5743 30.496C77.9183 30.336 78.2943 30.256 78.7023 30.256C79.2223 30.256 79.6863 30.368 80.0943 30.592C80.5023 30.808 80.8183 31.12 81.0423 31.528C81.2583 31.144 81.5703 30.836 81.9783 30.604C82.3943 30.372 82.8423 30.256 83.3223 30.256ZM87.2085 33.652C87.2085 32.98 87.3405 32.384 87.6045 31.864C87.8765 31.344 88.2405 30.944 88.6965 30.664C89.1605 30.384 89.6765 30.244 90.2445 30.244C90.7405 30.244 91.1725 30.344 91.5405 30.544C91.9165 30.744 92.2165 30.996 92.4405 31.3V30.352H94.1325V37H92.4405V36.028C92.2245 36.34 91.9245 36.6 91.5405 36.808C91.1645 37.008 90.7285 37.108 90.2325 37.108C89.6725 37.108 89.1605 36.964 88.6965 36.676C88.2405 36.388 87.8765 35.984 87.6045 35.464C87.3405 34.936 87.2085 34.332 87.2085 33.652ZM92.4405 33.676C92.4405 33.268 92.3605 32.92 92.2005 32.632C92.0405 32.336 91.8245 32.112 91.5525 31.96C91.2805 31.8 90.9885 31.72 90.6765 31.72C90.3645 31.72 90.0765 31.796 89.8125 31.948C89.5485 32.1 89.3325 32.324 89.1645 32.62C89.0045 32.908 88.9245 33.252 88.9245 33.652C88.9245 34.052 89.0045 34.404 89.1645 34.708C89.3325 35.004 89.5485 35.232 89.8125 35.392C90.0845 35.552 90.3725 35.632 90.6765 35.632C90.9885 35.632 91.2805 35.556 91.5525 35.404C91.8245 35.244 92.0405 35.02 92.2005 34.732C92.3605 34.436 92.4405 34.084 92.4405 33.676ZM102.133 30.352L98.0173 40.144H96.2293L97.6693 36.832L95.0053 30.352H96.8893L98.6053 34.996L100.345 30.352H102.133ZM107.578 28.624V37H105.898V28.624H107.578ZM115.842 30.256C116.346 30.256 116.794 30.368 117.186 30.592C117.578 30.808 117.882 31.132 118.098 31.564C118.322 31.988 118.434 32.5 118.434 33.1V37H116.754V33.328C116.754 32.8 116.622 32.396 116.358 32.116C116.094 31.828 115.734 31.684 115.278 31.684C114.814 31.684 114.446 31.828 114.174 32.116C113.91 32.396 113.778 32.8 113.778 33.328V37H112.098V28.12H113.778V31.18C113.994 30.892 114.282 30.668 114.642 30.508C115.002 30.34 115.402 30.256 115.842 30.256ZM126.211 33.532C126.211 33.772 126.195 33.988 126.163 34.18H121.303C121.343 34.66 121.511 35.036 121.807 35.308C122.103 35.58 122.467 35.716 122.899 35.716C123.523 35.716 123.967 35.448 124.231 34.912H126.043C125.851 35.552 125.483 36.08 124.939 36.496C124.395 36.904 123.727 37.108 122.935 37.108C122.295 37.108 121.719 36.968 121.207 36.688C120.703 36.4 120.307 35.996 120.019 35.476C119.739 34.956 119.599 34.356 119.599 33.676C119.599 32.988 119.739 32.384 120.019 31.864C120.299 31.344 120.691 30.944 121.195 30.664C121.699 30.384 122.279 30.244 122.935 30.244C123.567 30.244 124.131 30.38 124.627 30.652C125.131 30.924 125.519 31.312 125.791 31.816C126.071 32.312 126.211 32.884 126.211 33.532ZM124.471 33.052C124.463 32.62 124.307 32.276 124.003 32.02C123.699 31.756 123.327 31.624 122.887 31.624C122.471 31.624 122.119 31.752 121.831 32.008C121.551 32.256 121.379 32.604 121.315 33.052H124.471ZM129.117 28.12V37H127.437V28.12H129.117ZM132.457 31.312C132.673 31.008 132.969 30.756 133.345 30.556C133.729 30.348 134.165 30.244 134.653 30.244C135.221 30.244 135.733 30.384 136.189 30.664C136.653 30.944 137.017 31.344 137.281 31.864C137.553 32.376 137.689 32.972 137.689 33.652C137.689 34.332 137.553 34.936 137.281 35.464C137.017 35.984 136.653 36.388 136.189 36.676C135.733 36.964 135.221 37.108 134.653 37.108C134.165 37.108 133.733 37.008 133.357 36.808C132.989 36.608 132.689 36.356 132.457 36.052V40.168H130.777V30.352H132.457V31.312ZM135.973 33.652C135.973 33.252 135.889 32.908 135.721 32.62C135.561 32.324 135.345 32.1 135.073 31.948C134.809 31.796 134.521 31.72 134.209 31.72C133.905 31.72 133.617 31.8 133.345 31.96C133.081 32.112 132.865 32.336 132.697 32.632C132.537 32.928 132.457 33.276 132.457 33.676C132.457 34.076 132.537 34.424 132.697 34.72C132.865 35.016 133.081 35.244 133.345 35.404C133.617 35.556 133.905 35.632 134.209 35.632C134.521 35.632 134.809 35.552 135.073 35.392C135.345 35.232 135.561 35.004 135.721 34.708C135.889 34.412 135.973 34.06 135.973 33.652ZM141.25 28.336C142.082 28.336 142.75 28.564 143.254 29.02C143.766 29.468 144.022 30.088 144.022 30.88C144.022 31.664 143.77 32.264 143.266 32.68C142.762 33.088 142.094 33.292 141.262 33.292L141.214 34.216H139.738L139.678 32.176H140.218C140.914 32.176 141.45 32.084 141.826 31.9C142.202 31.716 142.39 31.38 142.39 30.892C142.39 30.54 142.286 30.26 142.078 30.052C141.878 29.844 141.602 29.74 141.25 29.74C140.882 29.74 140.594 29.84 140.386 30.04C140.186 30.24 140.086 30.516 140.086 30.868H138.502C138.494 30.38 138.598 29.944 138.814 29.56C139.03 29.176 139.346 28.876 139.762 28.66C140.186 28.444 140.682 28.336 141.25 28.336ZM140.47 37.084C140.166 37.084 139.914 36.992 139.714 36.808C139.522 36.616 139.426 36.38 139.426 36.1C139.426 35.82 139.522 35.588 139.714 35.404C139.914 35.212 140.166 35.116 140.47 35.116C140.766 35.116 141.01 35.212 141.202 35.404C141.394 35.588 141.49 35.82 141.49 36.1C141.49 36.38 141.394 36.616 141.202 36.808C141.01 36.992 140.766 37.084 140.47 37.084Z" fill="white"/>
<circle cx="28" cy="33" r="11" fill="white"/>
<path d="M21.6262 32.8424C21.6262 36.1302 24.1231 38.7958 27.2026 38.7958C28.1807 38.7958 29.0985 38.5269 29.8982 38.0552L32.9857 39.1112L31.9793 35.9163C32.487 35.0192 32.779 33.9668 32.779 32.8424C32.779 29.5546 30.2822 26.8889 27.2026 26.8889C24.1231 26.8889 21.6262 29.5546 21.6262 32.8424ZM27.2026 27.8362C29.788 27.8362 31.8907 30.0814 31.8907 32.8424C31.8907 33.9375 31.559 34.9519 30.9978 35.7769L31.584 37.6359L29.7823 37.0199C29.0417 37.5431 28.1545 37.8486 27.2026 37.8486C24.6172 37.8486 22.5146 35.6034 22.5146 32.8436C22.5146 30.0838 24.6172 27.8362 27.2026 27.8362ZM24.3866 34.2137C24.4207 34.1526 24.5127 34.1159 24.649 34.0438C24.7853 33.9705 25.4578 33.6173 25.5827 33.5696C25.7088 33.5207 25.7997 33.4963 25.8906 33.6429C25.9815 33.7896 26.2439 34.1172 26.3234 34.2149C26.4029 34.3127 26.4824 34.3249 26.6199 34.2516C26.7562 34.1783 27.1969 34.0243 27.7195 33.5268C28.1261 33.1394 28.3999 32.6627 28.4794 32.5161C28.5589 32.3694 28.4874 32.2899 28.4192 32.2178C28.3579 32.1518 28.2829 32.0479 28.2136 31.9624C28.1443 31.8768 28.1227 31.8157 28.0773 31.7192C28.0319 31.6226 28.0546 31.5371 28.0886 31.4637C28.1227 31.3904 28.3965 30.6729 28.5101 30.3808C28.6237 30.0887 28.7373 30.1376 28.8179 30.1376C28.8974 30.1376 28.9883 30.1254 29.0803 30.1254C29.1712 30.1254 29.32 30.1621 29.445 30.3075C29.5699 30.4529 29.9232 30.8074 29.9232 31.5248C29.9232 32.2435 29.4336 32.9365 29.3655 33.0343C29.2973 33.1321 28.4203 34.6525 27.0299 35.2367C25.6395 35.8209 25.6395 35.6254 25.3896 35.6022C25.1397 35.5777 24.5808 35.2489 24.4672 34.9079C24.3537 34.5669 24.3537 34.2748 24.3866 34.2137Z" fill="#58707F"/>
<path d="M21.6262 32.8424C21.6262 36.1302 24.1231 38.7958 27.2026 38.7958C28.1807 38.7958 29.0985 38.5269 29.8982 38.0552L32.9857 39.1112L31.9793 35.9163C32.487 35.0192 32.779 33.9668 32.779 32.8424C32.779 29.5546 30.2822 26.8889 27.2026 26.8889C24.1231 26.8889 21.6262 29.5546 21.6262 32.8424ZM27.2026 27.8362C29.788 27.8362 31.8907 30.0814 31.8907 32.8424C31.8907 33.9375 31.559 34.9519 30.9978 35.7769L31.584 37.6359L29.7823 37.0199C29.0417 37.5431 28.1545 37.8486 27.2026 37.8486C24.6172 37.8486 22.5146 35.6034 22.5146 32.8436C22.5146 30.0838 24.6172 27.8362 27.2026 27.8362ZM24.3866 34.2137C24.4207 34.1526 24.5127 34.1159 24.649 34.0438C24.7853 33.9705 25.4578 33.6173 25.5827 33.5696C25.7088 33.5207 25.7997 33.4963 25.8906 33.6429C25.9815 33.7896 26.2439 34.1172 26.3234 34.2149C26.4029 34.3127 26.4824 34.3249 26.6199 34.2516C26.7562 34.1783 27.1969 34.0243 27.7195 33.5268C28.1261 33.1394 28.3999 32.6627 28.4794 32.5161C28.5589 32.3694 28.4874 32.2899 28.4192 32.2178C28.3579 32.1518 28.2829 32.0479 28.2136 31.9624C28.1443 31.8768 28.1227 31.8157 28.0773 31.7192C28.0319 31.6226 28.0546 31.5371 28.0886 31.4637C28.1227 31.3904 28.3965 30.6729 28.5101 30.3808C28.6237 30.0887 28.7373 30.1376 28.8179 30.1376C28.8974 30.1376 28.9883 30.1254 29.0803 30.1254C29.1712 30.1254 29.32 30.1621 29.445 30.3075C29.5699 30.4529 29.9232 30.8074 29.9232 31.5248C29.9232 32.2435 29.4336 32.9365 29.3655 33.0343C29.2973 33.1321 28.4203 34.6525 27.0299 35.2367C25.6395 35.8209 25.6395 35.6254 25.3896 35.6022C25.1397 35.5777 24.5808 35.2489 24.4672 34.9079C24.3537 34.5669 24.3537 34.2748 24.3866 34.2137Z" fill="#58707F"/>
</svg>
