<svg width="100" height="80" viewBox="0 0 100 80" fill="none" xmlns="http://www.w3.org/2000/svg">
<rect x="10" y="31" width="80" height="18" rx="9" fill="#58707F"/>
<path d="M31.536 37.114V42H30.556V39.921H28.463V42H27.483V37.114H28.463V39.123H30.556V37.114H31.536ZM34.2226 42.063C33.8492 42.063 33.5132 41.9813 33.2146 41.818C32.9159 41.65 32.6802 41.4143 32.5076 41.111C32.3396 40.8077 32.2556 40.4577 32.2556 40.061C32.2556 39.6643 32.3419 39.3143 32.5146 39.011C32.6919 38.7077 32.9322 38.4743 33.2356 38.311C33.5389 38.143 33.8772 38.059 34.2506 38.059C34.6239 38.059 34.9622 38.143 35.2656 38.311C35.5689 38.4743 35.8069 38.7077 35.9796 39.011C36.1569 39.3143 36.2456 39.6643 36.2456 40.061C36.2456 40.4577 36.1546 40.8077 35.9726 41.111C35.7952 41.4143 35.5526 41.65 35.2446 41.818C34.9412 41.9813 34.6006 42.063 34.2226 42.063ZM34.2226 41.209C34.3999 41.209 34.5656 41.167 34.7196 41.083C34.8782 40.9943 35.0042 40.8637 35.0976 40.691C35.1909 40.5183 35.2376 40.3083 35.2376 40.061C35.2376 39.6923 35.1396 39.41 34.9436 39.214C34.7522 39.0133 34.5166 38.913 34.2366 38.913C33.9566 38.913 33.7209 39.0133 33.5296 39.214C33.3429 39.41 33.2496 39.6923 33.2496 40.061C33.2496 40.4297 33.3406 40.7143 33.5226 40.915C33.7092 41.111 33.9426 41.209 34.2226 41.209ZM42.3404 38.122L41.2064 42H40.1494L39.4424 39.291L38.7354 42H37.6714L36.5304 38.122H37.5244L38.2104 41.076L38.9524 38.122H39.9884L40.7164 41.069L41.4024 38.122H42.3404ZM49.3547 38.066C49.8307 38.066 50.2133 38.213 50.5027 38.507C50.7967 38.7963 50.9437 39.2023 50.9437 39.725V42H49.9637V39.858C49.9637 39.5547 49.8867 39.3237 49.7327 39.165C49.5787 39.0017 49.3687 38.92 49.1027 38.92C48.8367 38.92 48.6243 39.0017 48.4657 39.165C48.3117 39.3237 48.2347 39.5547 48.2347 39.858V42H47.2547V39.858C47.2547 39.5547 47.1777 39.3237 47.0237 39.165C46.8697 39.0017 46.6597 38.92 46.3937 38.92C46.123 38.92 45.9083 39.0017 45.7497 39.165C45.5957 39.3237 45.5187 39.5547 45.5187 39.858V42H44.5387V38.122H45.5187V38.591C45.6447 38.4277 45.8057 38.2993 46.0017 38.206C46.2023 38.1127 46.4217 38.066 46.6597 38.066C46.963 38.066 47.2337 38.1313 47.4717 38.262C47.7097 38.388 47.894 38.57 48.0247 38.808C48.1507 38.584 48.3327 38.4043 48.5707 38.269C48.8133 38.1337 49.0747 38.066 49.3547 38.066ZM51.6216 40.047C51.6216 39.655 51.6986 39.3073 51.8526 39.004C52.0113 38.7007 52.2236 38.4673 52.4896 38.304C52.7603 38.1407 53.0613 38.059 53.3926 38.059C53.682 38.059 53.934 38.1173 54.1486 38.234C54.368 38.3507 54.543 38.4977 54.6736 38.675V38.122H55.6606V42H54.6736V41.433C54.5476 41.615 54.3726 41.7667 54.1486 41.888C53.9293 42.0047 53.675 42.063 53.3856 42.063C53.059 42.063 52.7603 41.979 52.4896 41.811C52.2236 41.643 52.0113 41.4073 51.8526 41.104C51.6986 40.796 51.6216 40.4437 51.6216 40.047ZM54.6736 40.061C54.6736 39.823 54.627 39.62 54.5336 39.452C54.4403 39.2793 54.3143 39.1487 54.1556 39.06C53.997 38.9667 53.8266 38.92 53.6446 38.92C53.4626 38.92 53.2946 38.9643 53.1406 39.053C52.9866 39.1417 52.8606 39.2723 52.7626 39.445C52.6693 39.613 52.6226 39.8137 52.6226 40.047C52.6226 40.2803 52.6693 40.4857 52.7626 40.663C52.8606 40.8357 52.9866 40.9687 53.1406 41.062C53.2993 41.1553 53.4673 41.202 53.6446 41.202C53.8266 41.202 53.997 41.1577 54.1556 41.069C54.3143 40.9757 54.4403 40.845 54.5336 40.677C54.627 40.5043 54.6736 40.299 54.6736 40.061ZM60.3278 38.122L57.9268 43.834H56.8838L57.7238 41.902L56.1698 38.122H57.2688L58.2698 40.831L59.2848 38.122H60.3278ZM63.504 37.114V42H62.524V37.114H63.504ZM68.3242 38.066C68.6182 38.066 68.8796 38.1313 69.1082 38.262C69.3369 38.388 69.5142 38.577 69.6402 38.829C69.7709 39.0763 69.8362 39.375 69.8362 39.725V42H68.8562V39.858C68.8562 39.55 68.7792 39.3143 68.6252 39.151C68.4712 38.983 68.2612 38.899 67.9952 38.899C67.7246 38.899 67.5099 38.983 67.3512 39.151C67.1972 39.3143 67.1202 39.55 67.1202 39.858V42H66.1402V36.82H67.1202V38.605C67.2462 38.437 67.4142 38.3063 67.6242 38.213C67.8342 38.115 68.0676 38.066 68.3242 38.066ZM74.3732 39.977C74.3732 40.117 74.3638 40.243 74.3452 40.355H71.5102C71.5335 40.635 71.6315 40.8543 71.8042 41.013C71.9768 41.1717 72.1892 41.251 72.4412 41.251C72.8052 41.251 73.0642 41.0947 73.2182 40.782H74.2752C74.1632 41.1553 73.9485 41.4633 73.6312 41.706C73.3138 41.944 72.9242 42.063 72.4622 42.063C72.0888 42.063 71.7528 41.9813 71.4542 41.818C71.1602 41.65 70.9292 41.4143 70.7612 41.111C70.5978 40.8077 70.5162 40.4577 70.5162 40.061C70.5162 39.6597 70.5978 39.3073 70.7612 39.004C70.9245 38.7007 71.1532 38.4673 71.4472 38.304C71.7412 38.1407 72.0795 38.059 72.4622 38.059C72.8308 38.059 73.1598 38.1383 73.4492 38.297C73.7432 38.4557 73.9695 38.682 74.1282 38.976C74.2915 39.2653 74.3732 39.599 74.3732 39.977ZM73.3582 39.697C73.3535 39.445 73.2625 39.2443 73.0852 39.095C72.9078 38.941 72.6908 38.864 72.4342 38.864C72.1915 38.864 71.9862 38.9387 71.8182 39.088C71.6548 39.2327 71.5545 39.4357 71.5172 39.697H73.3582ZM76.0685 36.82V42H75.0885V36.82H76.0685ZM78.0167 38.682C78.1427 38.5047 78.3154 38.3577 78.5347 38.241C78.7587 38.1197 79.013 38.059 79.2977 38.059C79.629 38.059 79.9277 38.1407 80.1937 38.304C80.4644 38.4673 80.6767 38.7007 80.8307 39.004C80.9894 39.3027 81.0687 39.6503 81.0687 40.047C81.0687 40.4437 80.9894 40.796 80.8307 41.104C80.6767 41.4073 80.4644 41.643 80.1937 41.811C79.9277 41.979 79.629 42.063 79.2977 42.063C79.013 42.063 78.761 42.0047 78.5417 41.888C78.327 41.7713 78.152 41.6243 78.0167 41.447V43.848H77.0367V38.122H78.0167V38.682ZM80.0677 40.047C80.0677 39.8137 80.0187 39.613 79.9207 39.445C79.8274 39.2723 79.7014 39.1417 79.5427 39.053C79.3887 38.9643 79.2207 38.92 79.0387 38.92C78.8614 38.92 78.6934 38.9667 78.5347 39.06C78.3807 39.1487 78.2547 39.2793 78.1567 39.452C78.0634 39.6247 78.0167 39.8277 78.0167 40.061C78.0167 40.2943 78.0634 40.4973 78.1567 40.67C78.2547 40.8427 78.3807 40.9757 78.5347 41.069C78.6934 41.1577 78.8614 41.202 79.0387 41.202C79.2207 41.202 79.3887 41.1553 79.5427 41.062C79.7014 40.9687 79.8274 40.8357 79.9207 40.663C80.0187 40.4903 80.0677 40.285 80.0677 40.047ZM83.1459 36.946C83.6312 36.946 84.0209 37.079 84.3149 37.345C84.6135 37.6063 84.7629 37.968 84.7629 38.43C84.7629 38.8873 84.6159 39.2373 84.3219 39.48C84.0279 39.718 83.6382 39.837 83.1529 39.837L83.1249 40.376H82.2639L82.2289 39.186H82.5439C82.9499 39.186 83.2625 39.1323 83.4819 39.025C83.7012 38.9177 83.8109 38.7217 83.8109 38.437C83.8109 38.2317 83.7502 38.0683 83.6289 37.947C83.5122 37.8257 83.3512 37.765 83.1459 37.765C82.9312 37.765 82.7632 37.8233 82.6419 37.94C82.5252 38.0567 82.4669 38.2177 82.4669 38.423H81.5429C81.5382 38.1383 81.5989 37.884 81.7249 37.66C81.8509 37.436 82.0352 37.261 82.2779 37.135C82.5252 37.009 82.8145 36.946 83.1459 36.946ZM82.6909 42.049C82.5135 42.049 82.3665 41.9953 82.2499 41.888C82.1379 41.776 82.0819 41.6383 82.0819 41.475C82.0819 41.3117 82.1379 41.1763 82.2499 41.069C82.3665 40.957 82.5135 40.901 82.6909 40.901C82.8635 40.901 83.0059 40.957 83.1179 41.069C83.2299 41.1763 83.2859 41.3117 83.2859 41.475C83.2859 41.6383 83.2299 41.776 83.1179 41.888C83.0059 41.9953 82.8635 42.049 82.6909 42.049Z" fill="white"/>
<path d="M13.9999 39.871C13.9999 42.561 16.1979 44.742 18.909 44.742C19.77 44.742 20.578 44.522 21.282 44.136L24 45.0001L23.114 42.386C23.561 41.652 23.818 40.791 23.818 39.871C23.818 37.181 21.62 35 18.909 35C16.1979 35 13.9999 37.181 13.9999 39.871ZM18.909 35.775C21.185 35.775 23.036 37.612 23.036 39.871C23.036 40.767 22.744 41.597 22.25 42.272L22.766 43.793L21.18 43.289C20.528 43.717 19.747 43.967 18.909 43.967C16.6329 43.967 14.7819 42.13 14.7819 39.872C14.7819 37.614 16.6329 35.775 18.909 35.775ZM16.4299 40.993C16.4599 40.943 16.5409 40.913 16.6609 40.854C16.7809 40.794 17.3729 40.505 17.4829 40.466C17.5939 40.426 17.6739 40.406 17.7539 40.526C17.8339 40.646 18.065 40.914 18.135 40.994C18.205 41.074 18.275 41.084 18.396 41.024C18.516 40.964 18.904 40.838 19.364 40.431C19.722 40.114 19.963 39.724 20.033 39.604C20.103 39.484 20.04 39.419 19.98 39.36C19.926 39.306 19.86 39.221 19.799 39.151C19.738 39.081 19.719 39.031 19.679 38.952C19.639 38.873 19.659 38.803 19.689 38.743C19.719 38.683 19.96 38.096 20.06 37.857C20.16 37.618 20.26 37.658 20.331 37.658C20.401 37.658 20.481 37.648 20.562 37.648C20.642 37.648 20.773 37.678 20.883 37.797C20.993 37.916 21.304 38.206 21.304 38.793C21.304 39.381 20.873 39.948 20.813 40.028C20.753 40.108 19.981 41.352 18.757 41.83C17.5329 42.308 17.5329 42.148 17.3129 42.129C17.0929 42.109 16.6009 41.84 16.5009 41.561C16.4009 41.282 16.4009 41.043 16.4299 40.993Z" fill="white"/>
<path d="M13.9999 39.871C13.9999 42.561 16.1979 44.742 18.909 44.742C19.77 44.742 20.578 44.522 21.282 44.136L24 45.0001L23.114 42.386C23.561 41.652 23.818 40.791 23.818 39.871C23.818 37.181 21.62 35 18.909 35C16.1979 35 13.9999 37.181 13.9999 39.871ZM18.909 35.775C21.185 35.775 23.036 37.612 23.036 39.871C23.036 40.767 22.744 41.597 22.25 42.272L22.766 43.793L21.18 43.289C20.528 43.717 19.747 43.967 18.909 43.967C16.6329 43.967 14.7819 42.13 14.7819 39.872C14.7819 37.614 16.6329 35.775 18.909 35.775ZM16.4299 40.993C16.4599 40.943 16.5409 40.913 16.6609 40.854C16.7809 40.794 17.3729 40.505 17.4829 40.466C17.5939 40.426 17.6739 40.406 17.7539 40.526C17.8339 40.646 18.065 40.914 18.135 40.994C18.205 41.074 18.275 41.084 18.396 41.024C18.516 40.964 18.904 40.838 19.364 40.431C19.722 40.114 19.963 39.724 20.033 39.604C20.103 39.484 20.04 39.419 19.98 39.36C19.926 39.306 19.86 39.221 19.799 39.151C19.738 39.081 19.719 39.031 19.679 38.952C19.639 38.873 19.659 38.803 19.689 38.743C19.719 38.683 19.96 38.096 20.06 37.857C20.16 37.618 20.26 37.658 20.331 37.658C20.401 37.658 20.481 37.648 20.562 37.648C20.642 37.648 20.773 37.678 20.883 37.797C20.993 37.916 21.304 38.206 21.304 38.793C21.304 39.381 20.873 39.948 20.813 40.028C20.753 40.108 19.981 41.352 18.757 41.83C17.5329 42.308 17.5329 42.148 17.3129 42.129C17.0929 42.109 16.6009 41.84 16.5009 41.561C16.4009 41.282 16.4009 41.043 16.4299 40.993Z" fill="white"/>
</svg>
