<svg width="100" height="80" viewBox="0 0 100 80" fill="none" xmlns="http://www.w3.org/2000/svg">
<rect x="9.5" y="30.5" width="81" height="19" rx="9.5" fill="white" stroke="#58707F"/>
<path d="M31.536 37.114V42H30.556V39.921H28.463V42H27.483V37.114H28.463V39.123H30.556V37.114H31.536ZM34.2226 42.063C33.8492 42.063 33.5132 41.9813 33.2146 41.818C32.9159 41.65 32.6802 41.4143 32.5076 41.111C32.3396 40.8077 32.2556 40.4577 32.2556 40.061C32.2556 39.6643 32.3419 39.3143 32.5146 39.011C32.6919 38.7077 32.9322 38.4743 33.2356 38.311C33.5389 38.143 33.8772 38.059 34.2506 38.059C34.6239 38.059 34.9622 38.143 35.2656 38.311C35.5689 38.4743 35.8069 38.7077 35.9796 39.011C36.1569 39.3143 36.2456 39.6643 36.2456 40.061C36.2456 40.4577 36.1546 40.8077 35.9726 41.111C35.7952 41.4143 35.5526 41.65 35.2446 41.818C34.9412 41.9813 34.6006 42.063 34.2226 42.063ZM34.2226 41.209C34.3999 41.209 34.5656 41.167 34.7196 41.083C34.8782 40.9943 35.0042 40.8637 35.0976 40.691C35.1909 40.5183 35.2376 40.3083 35.2376 40.061C35.2376 39.6923 35.1396 39.41 34.9436 39.214C34.7522 39.0133 34.5166 38.913 34.2366 38.913C33.9566 38.913 33.7209 39.0133 33.5296 39.214C33.3429 39.41 33.2496 39.6923 33.2496 40.061C33.2496 40.4297 33.3406 40.7143 33.5226 40.915C33.7092 41.111 33.9426 41.209 34.2226 41.209ZM42.3404 38.122L41.2064 42H40.1494L39.4424 39.291L38.7354 42H37.6714L36.5304 38.122H37.5244L38.2104 41.076L38.9524 38.122H39.9884L40.7164 41.069L41.4024 38.122H42.3404ZM49.3547 38.066C49.8307 38.066 50.2133 38.213 50.5027 38.507C50.7967 38.7963 50.9437 39.2023 50.9437 39.725V42H49.9637V39.858C49.9637 39.5547 49.8867 39.3237 49.7327 39.165C49.5787 39.0017 49.3687 38.92 49.1027 38.92C48.8367 38.92 48.6243 39.0017 48.4657 39.165C48.3117 39.3237 48.2347 39.5547 48.2347 39.858V42H47.2547V39.858C47.2547 39.5547 47.1777 39.3237 47.0237 39.165C46.8697 39.0017 46.6597 38.92 46.3937 38.92C46.123 38.92 45.9083 39.0017 45.7497 39.165C45.5957 39.3237 45.5187 39.5547 45.5187 39.858V42H44.5387V38.122H45.5187V38.591C45.6447 38.4277 45.8057 38.2993 46.0017 38.206C46.2023 38.1127 46.4217 38.066 46.6597 38.066C46.963 38.066 47.2337 38.1313 47.4717 38.262C47.7097 38.388 47.894 38.57 48.0247 38.808C48.1507 38.584 48.3327 38.4043 48.5707 38.269C48.8133 38.1337 49.0747 38.066 49.3547 38.066ZM51.6216 40.047C51.6216 39.655 51.6986 39.3073 51.8526 39.004C52.0113 38.7007 52.2236 38.4673 52.4896 38.304C52.7603 38.1407 53.0613 38.059 53.3926 38.059C53.682 38.059 53.934 38.1173 54.1486 38.234C54.368 38.3507 54.543 38.4977 54.6736 38.675V38.122H55.6606V42H54.6736V41.433C54.5476 41.615 54.3726 41.7667 54.1486 41.888C53.9293 42.0047 53.675 42.063 53.3856 42.063C53.059 42.063 52.7603 41.979 52.4896 41.811C52.2236 41.643 52.0113 41.4073 51.8526 41.104C51.6986 40.796 51.6216 40.4437 51.6216 40.047ZM54.6736 40.061C54.6736 39.823 54.627 39.62 54.5336 39.452C54.4403 39.2793 54.3143 39.1487 54.1556 39.06C53.997 38.9667 53.8266 38.92 53.6446 38.92C53.4626 38.92 53.2946 38.9643 53.1406 39.053C52.9866 39.1417 52.8606 39.2723 52.7626 39.445C52.6693 39.613 52.6226 39.8137 52.6226 40.047C52.6226 40.2803 52.6693 40.4857 52.7626 40.663C52.8606 40.8357 52.9866 40.9687 53.1406 41.062C53.2993 41.1553 53.4673 41.202 53.6446 41.202C53.8266 41.202 53.997 41.1577 54.1556 41.069C54.3143 40.9757 54.4403 40.845 54.5336 40.677C54.627 40.5043 54.6736 40.299 54.6736 40.061ZM60.3278 38.122L57.9268 43.834H56.8838L57.7238 41.902L56.1698 38.122H57.2688L58.2698 40.831L59.2848 38.122H60.3278ZM63.504 37.114V42H62.524V37.114H63.504ZM68.3242 38.066C68.6182 38.066 68.8796 38.1313 69.1082 38.262C69.3369 38.388 69.5142 38.577 69.6402 38.829C69.7709 39.0763 69.8362 39.375 69.8362 39.725V42H68.8562V39.858C68.8562 39.55 68.7792 39.3143 68.6252 39.151C68.4712 38.983 68.2612 38.899 67.9952 38.899C67.7246 38.899 67.5099 38.983 67.3512 39.151C67.1972 39.3143 67.1202 39.55 67.1202 39.858V42H66.1402V36.82H67.1202V38.605C67.2462 38.437 67.4142 38.3063 67.6242 38.213C67.8342 38.115 68.0676 38.066 68.3242 38.066ZM74.3732 39.977C74.3732 40.117 74.3638 40.243 74.3452 40.355H71.5102C71.5335 40.635 71.6315 40.8543 71.8042 41.013C71.9768 41.1717 72.1892 41.251 72.4412 41.251C72.8052 41.251 73.0642 41.0947 73.2182 40.782H74.2752C74.1632 41.1553 73.9485 41.4633 73.6312 41.706C73.3138 41.944 72.9242 42.063 72.4622 42.063C72.0888 42.063 71.7528 41.9813 71.4542 41.818C71.1602 41.65 70.9292 41.4143 70.7612 41.111C70.5978 40.8077 70.5162 40.4577 70.5162 40.061C70.5162 39.6597 70.5978 39.3073 70.7612 39.004C70.9245 38.7007 71.1532 38.4673 71.4472 38.304C71.7412 38.1407 72.0795 38.059 72.4622 38.059C72.8308 38.059 73.1598 38.1383 73.4492 38.297C73.7432 38.4557 73.9695 38.682 74.1282 38.976C74.2915 39.2653 74.3732 39.599 74.3732 39.977ZM73.3582 39.697C73.3535 39.445 73.2625 39.2443 73.0852 39.095C72.9078 38.941 72.6908 38.864 72.4342 38.864C72.1915 38.864 71.9862 38.9387 71.8182 39.088C71.6548 39.2327 71.5545 39.4357 71.5172 39.697H73.3582ZM76.0685 36.82V42H75.0885V36.82H76.0685ZM78.0167 38.682C78.1427 38.5047 78.3154 38.3577 78.5347 38.241C78.7587 38.1197 79.013 38.059 79.2977 38.059C79.629 38.059 79.9277 38.1407 80.1937 38.304C80.4644 38.4673 80.6767 38.7007 80.8307 39.004C80.9894 39.3027 81.0687 39.6503 81.0687 40.047C81.0687 40.4437 80.9894 40.796 80.8307 41.104C80.6767 41.4073 80.4644 41.643 80.1937 41.811C79.9277 41.979 79.629 42.063 79.2977 42.063C79.013 42.063 78.761 42.0047 78.5417 41.888C78.327 41.7713 78.152 41.6243 78.0167 41.447V43.848H77.0367V38.122H78.0167V38.682ZM80.0677 40.047C80.0677 39.8137 80.0187 39.613 79.9207 39.445C79.8274 39.2723 79.7014 39.1417 79.5427 39.053C79.3887 38.9643 79.2207 38.92 79.0387 38.92C78.8614 38.92 78.6934 38.9667 78.5347 39.06C78.3807 39.1487 78.2547 39.2793 78.1567 39.452C78.0634 39.6247 78.0167 39.8277 78.0167 40.061C78.0167 40.2943 78.0634 40.4973 78.1567 40.67C78.2547 40.8427 78.3807 40.9757 78.5347 41.069C78.6934 41.1577 78.8614 41.202 79.0387 41.202C79.2207 41.202 79.3887 41.1553 79.5427 41.062C79.7014 40.9687 79.8274 40.8357 79.9207 40.663C80.0187 40.4903 80.0677 40.285 80.0677 40.047ZM83.1459 36.946C83.6312 36.946 84.0209 37.079 84.3149 37.345C84.6135 37.6063 84.7629 37.968 84.7629 38.43C84.7629 38.8873 84.6159 39.2373 84.3219 39.48C84.0279 39.718 83.6382 39.837 83.1529 39.837L83.1249 40.376H82.2639L82.2289 39.186H82.5439C82.9499 39.186 83.2625 39.1323 83.4819 39.025C83.7012 38.9177 83.8109 38.7217 83.8109 38.437C83.8109 38.2317 83.7502 38.0683 83.6289 37.947C83.5122 37.8257 83.3512 37.765 83.1459 37.765C82.9312 37.765 82.7632 37.8233 82.6419 37.94C82.5252 38.0567 82.4669 38.2177 82.4669 38.423H81.5429C81.5382 38.1383 81.5989 37.884 81.7249 37.66C81.8509 37.436 82.0352 37.261 82.2779 37.135C82.5252 37.009 82.8145 36.946 83.1459 36.946ZM82.6909 42.049C82.5135 42.049 82.3665 41.9953 82.2499 41.888C82.1379 41.776 82.0819 41.6383 82.0819 41.475C82.0819 41.3117 82.1379 41.1763 82.2499 41.069C82.3665 40.957 82.5135 40.901 82.6909 40.901C82.8635 40.901 83.0059 40.957 83.1179 41.069C83.2299 41.1763 83.2859 41.3117 83.2859 41.475C83.2859 41.6383 83.2299 41.776 83.1179 41.888C83.0059 41.9953 82.8635 42.049 82.6909 42.049Z" fill="#58707F"/>
<circle cx="19" cy="40" r="6" fill="#58707F"/>
<path d="M15.6667 39.914C15.6667 41.7074 17.132 43.1614 18.9394 43.1614C19.5134 43.1614 20.052 43.0147 20.5214 42.7574L22.3334 43.3334L21.7427 41.5907C22.0407 41.1014 22.212 40.5274 22.212 39.914C22.212 38.1207 20.7467 36.6667 18.9394 36.6667C17.132 36.6667 15.6667 38.1207 15.6667 39.914ZM18.9394 37.1834C20.4567 37.1834 21.6907 38.408 21.6907 39.914C21.6907 40.5114 21.496 41.0647 21.1667 41.5147L21.5107 42.5287L20.4534 42.1927C20.0187 42.478 19.498 42.6447 18.9394 42.6447C17.422 42.6447 16.188 41.42 16.188 39.9147C16.188 38.4094 17.422 37.1834 18.9394 37.1834ZM17.2867 40.662C17.3067 40.6287 17.3607 40.6087 17.4407 40.5694C17.5207 40.5294 17.9154 40.3367 17.9887 40.3107C18.0627 40.284 18.116 40.2707 18.1694 40.3507C18.2227 40.4307 18.3767 40.6094 18.4234 40.6627C18.47 40.716 18.5167 40.7227 18.5974 40.6827C18.6774 40.6427 18.936 40.5587 19.2427 40.2874C19.4814 40.076 19.642 39.816 19.6887 39.736C19.7354 39.656 19.6934 39.6127 19.6534 39.5734C19.6174 39.5374 19.5734 39.4807 19.5327 39.434C19.492 39.3874 19.4794 39.354 19.4527 39.3014C19.426 39.2487 19.4394 39.202 19.4594 39.162C19.4794 39.122 19.64 38.7307 19.7067 38.5714C19.7734 38.412 19.84 38.4387 19.8874 38.4387C19.934 38.4387 19.9874 38.432 20.0414 38.432C20.0947 38.432 20.182 38.452 20.2554 38.5314C20.3287 38.6107 20.536 38.804 20.536 39.1954C20.536 39.5874 20.2487 39.9654 20.2087 40.0187C20.1687 40.072 19.654 40.9014 18.838 41.22C18.022 41.5387 18.022 41.432 17.8754 41.4194C17.7287 41.406 17.4007 41.2267 17.334 41.0407C17.2674 40.8547 17.2674 40.6954 17.2867 40.662Z" fill="white"/>
<path d="M15.6667 39.914C15.6667 41.7074 17.132 43.1614 18.9394 43.1614C19.5134 43.1614 20.052 43.0147 20.5214 42.7574L22.3334 43.3334L21.7427 41.5907C22.0407 41.1014 22.212 40.5274 22.212 39.914C22.212 38.1207 20.7467 36.6667 18.9394 36.6667C17.132 36.6667 15.6667 38.1207 15.6667 39.914ZM18.9394 37.1834C20.4567 37.1834 21.6907 38.408 21.6907 39.914C21.6907 40.5114 21.496 41.0647 21.1667 41.5147L21.5107 42.5287L20.4534 42.1927C20.0187 42.478 19.498 42.6447 18.9394 42.6447C17.422 42.6447 16.188 41.42 16.188 39.9147C16.188 38.4094 17.422 37.1834 18.9394 37.1834ZM17.2867 40.662C17.3067 40.6287 17.3607 40.6087 17.4407 40.5694C17.5207 40.5294 17.9154 40.3367 17.9887 40.3107C18.0627 40.284 18.116 40.2707 18.1694 40.3507C18.2227 40.4307 18.3767 40.6094 18.4234 40.6627C18.47 40.716 18.5167 40.7227 18.5974 40.6827C18.6774 40.6427 18.936 40.5587 19.2427 40.2874C19.4814 40.076 19.642 39.816 19.6887 39.736C19.7354 39.656 19.6934 39.6127 19.6534 39.5734C19.6174 39.5374 19.5734 39.4807 19.5327 39.434C19.492 39.3874 19.4794 39.354 19.4527 39.3014C19.426 39.2487 19.4394 39.202 19.4594 39.162C19.4794 39.122 19.64 38.7307 19.7067 38.5714C19.7734 38.412 19.84 38.4387 19.8874 38.4387C19.934 38.4387 19.9874 38.432 20.0414 38.432C20.0947 38.432 20.182 38.452 20.2554 38.5314C20.3287 38.6107 20.536 38.804 20.536 39.1954C20.536 39.5874 20.2487 39.9654 20.2087 40.0187C20.1687 40.072 19.654 40.9014 18.838 41.22C18.022 41.5387 18.022 41.432 17.8754 41.4194C17.7287 41.406 17.4007 41.2267 17.334 41.0407C17.2674 40.8547 17.2674 40.6954 17.2867 40.662Z" fill="white"/>
</svg>
