<svg width="300" height="80" viewBox="0 0 300 80" fill="none" xmlns="http://www.w3.org/2000/svg">
<rect x="8" y="7" width="283" height="66" rx="3" fill="#58707F"/>
<rect x="80" y="51" width="30" height="10" rx="5" fill="#F1F1F1"/>
<rect x="80" y="22" width="59" height="6" fill="#F1F1F1"/>
<rect x="80" y="32" width="205" height="15" fill="#F1F1F1"/>
<circle cx="44" cy="40" r="27" fill="white"/>
<g clip-path="url(#clip0_1507_2)" filter="url(#filter0_d_1507_2)">
<path d="M54.131 46.2404C52.883 45.4064 51.476 44.9084 50.123 44.2904L49.376 43.9664C48.116 43.3814 47.648 42.2204 48.2 40.9274C48.551 40.1084 48.845 39.2774 48.995 38.3984C49.025 38.2244 49.061 38.0774 49.313 38.0984C49.772 38.1374 50.027 37.8524 50.156 37.4534C50.39 36.7334 50.615 36.0074 50.828 35.2814C50.909 35.0054 50.918 34.7144 50.858 34.4294C50.801 34.1414 50.654 33.8834 50.351 33.8654C50.009 33.8444 49.955 33.6884 49.982 33.4064C50.027 32.9234 50.039 32.4344 50.105 31.9544C50.558 28.6184 48.284 25.5854 44.954 25.0904C44.858 25.0754 44.768 25.0304 44.675 24.9974H43.385C43.208 25.1564 42.977 25.0994 42.77 25.1474C39.536 25.8944 37.565 28.7774 38.009 32.1194C38.072 32.5874 38.135 33.0554 38.114 33.5294C38.105 33.7034 38.075 33.8234 37.859 33.8474C37.382 33.9014 37.235 34.2434 37.214 34.6664C37.184 35.2544 37.454 35.7764 37.598 36.3284C37.676 36.6314 37.802 36.9224 37.883 37.2254C38.021 37.7384 38.252 38.1314 38.864 38.1044C39.041 38.0954 39.071 38.2124 39.095 38.3504C39.269 39.2804 39.557 40.1744 39.947 41.0384C40.271 41.7554 40.133 42.4634 39.812 43.1504C39.62 43.5644 39.233 43.7264 38.858 43.9034C37.574 44.5004 36.245 44.9894 34.988 45.6434C34.583 45.8534 34.19 46.0934 33.818 46.3574C33.218 46.7804 32.774 47.3324 32.567 48.0494C32.159 49.4534 31.994 50.8814 32.282 52.3304C32.474 53.2994 33.059 53.9324 34.007 54.2204C34.958 54.5084 35.936 54.6284 36.917 54.7274C38.243 54.8564 39.572 54.9014 40.901 54.9434C41.042 54.9464 41.18 54.9824 41.321 55.0034H46.649C47.762 54.9434 48.878 54.8864 49.991 54.8204C51.263 54.7454 52.529 54.6164 53.771 54.3194C55.112 53.9954 55.742 53.2574 55.841 51.8924C55.934 50.5814 55.79 49.2914 55.457 48.0224C55.256 47.2454 54.788 46.6814 54.131 46.2404Z" fill="#58707F"/>
</g>
<defs>
<filter id="filter0_d_1507_2" x="25" y="25" width="38" height="38" filterUnits="userSpaceOnUse" color-interpolation-filters="sRGB">
<feFlood flood-opacity="0" result="BackgroundImageFix"/>
<feColorMatrix in="SourceAlpha" type="matrix" values="0 0 0 0 0 0 0 0 0 0 0 0 0 0 0 0 0 0 127 0" result="hardAlpha"/>
<feOffset dy="4"/>
<feGaussianBlur stdDeviation="2"/>
<feComposite in2="hardAlpha" operator="out"/>
<feColorMatrix type="matrix" values="0 0 0 0 0 0 0 0 0 0 0 0 0 0 0 0 0 0 0.25 0"/>
<feBlend mode="normal" in2="BackgroundImageFix" result="effect1_dropShadow_1507_2"/>
<feBlend mode="normal" in="SourceGraphic" in2="effect1_dropShadow_1507_2" result="shape"/>
</filter>
<clipPath id="clip0_1507_2">
<rect width="30" height="30" fill="white" transform="translate(29 25)"/>
</clipPath>
</defs>
</svg>
