<svg width="100" height="80" viewBox="0 0 100 80" fill="none" xmlns="http://www.w3.org/2000/svg">
<path d="M12 21H89V70C89 71.1046 88.1046 72 87 72H14C12.8954 72 12 71.1046 12 70V21Z" fill="#F1F1F1"/>
<rect x="14" y="26" width="35" height="20" rx="1" fill="white"/>
<path d="M47 40H16V44H47V40Z" fill="#58707F"/>
<path d="M47 35H16V39H47V35Z" fill="#58707F"/>
<path d="M31 34C32.6569 34 34 32.6569 34 31C34 29.3431 32.6569 28 31 28C29.3431 28 28 29.3431 28 31C28 32.6569 29.3431 34 31 34Z" fill="#58707F"/>
<mask id="mask0_217_79" style="mask-type:luminance" maskUnits="userSpaceOnUse" x="29" y="29" width="4" height="4">
<path d="M29.2002 31.0002C29.2002 31.9943 30.0061 32.8002 31.0002 32.8002C31.9943 32.8002 32.8002 31.9943 32.8002 31.0002C32.8002 30.0061 31.9943 29.2002 31.0002 29.2002C30.0061 29.2002 29.2002 30.0061 29.2002 31.0002Z" fill="white"/>
</mask>
<g mask="url(#mask0_217_79)">
<g filter="url(#filter0_d_217_79)">
<path d="M32.2155 31.7489C32.0657 31.6488 31.8969 31.589 31.7345 31.5149L31.6449 31.476C31.4937 31.4058 31.4375 31.2665 31.5038 31.1113C31.5459 31.013 31.5812 30.9133 31.5992 30.8078C31.6028 30.7869 31.6071 30.7693 31.6373 30.7718C31.6924 30.7765 31.723 30.7423 31.7385 30.6944C31.7666 30.608 31.7936 30.5209 31.8191 30.4338C31.8289 30.4007 31.8299 30.3657 31.8227 30.3315C31.8159 30.297 31.7983 30.266 31.7619 30.2639C31.7209 30.2613 31.7144 30.2426 31.7176 30.2088C31.723 30.1508 31.7245 30.0921 31.7324 30.0345C31.7867 29.6342 31.5139 29.2703 31.1143 29.2109V29.2109C31.0912 29.2073 31.0688 29.1997 31.0454 29.1997H31.0034C30.9535 29.1997 30.9007 29.2064 30.8522 29.2177V29.2177C30.4641 29.3073 30.2276 29.6533 30.2808 30.0543C30.2884 30.1105 30.296 30.1667 30.2934 30.2235C30.2924 30.2444 30.2888 30.2588 30.2628 30.2617C30.2056 30.2682 30.188 30.3092 30.1854 30.36C30.1818 30.4305 30.2143 30.4932 30.2315 30.5594C30.2409 30.5958 30.256 30.6307 30.2657 30.6671C30.2823 30.7286 30.31 30.7758 30.3834 30.7725C30.4047 30.7715 30.4083 30.7855 30.4112 30.8021C30.4321 30.9137 30.4666 31.0209 30.5134 31.1246C30.5523 31.2107 30.5357 31.2956 30.4972 31.3781C30.4742 31.4277 30.4277 31.4472 30.3827 31.4684C30.2287 31.5401 30.0692 31.5987 29.9183 31.6772C29.8697 31.7024 29.8226 31.7312 29.7779 31.7629C29.7059 31.8137 29.6526 31.8799 29.6278 31.9659C29.5788 32.1344 29.559 32.3058 29.5936 32.4797C29.6166 32.5959 29.6868 32.6719 29.8006 32.7065C29.9147 32.741 30.0321 32.7554 30.1498 32.7673C30.3089 32.7828 30.4684 32.7882 30.6279 32.7932V32.7932C30.6618 32.794 30.6953 32.8004 30.7293 32.8004H31.3177C31.4512 32.7932 31.5851 32.7864 31.7187 32.7785C31.8713 32.7695 32.0233 32.754 32.1723 32.7183C32.3332 32.6795 32.4088 32.5909 32.4207 32.4271C32.4319 32.2698 32.4146 32.115 32.3746 31.9627C32.3505 31.8695 32.2943 31.8018 32.2155 31.7489Z" fill="white"/>
</g>
</g>
<rect x="14" y="49" width="35" height="20" rx="1" fill="white"/>
<path d="M47 63H16V67H47V63Z" fill="#58707F"/>
<path d="M47 58H16V62H47V58Z" fill="#58707F"/>
<path d="M31 57C32.6569 57 34 55.6569 34 54C34 52.3431 32.6569 51 31 51C29.3431 51 28 52.3431 28 54C28 55.6569 29.3431 57 31 57Z" fill="#58707F"/>
<mask id="mask1_217_79" style="mask-type:luminance" maskUnits="userSpaceOnUse" x="29" y="52" width="4" height="4">
<path d="M29.2002 54.0002C29.2002 54.9943 30.0061 55.8002 31.0002 55.8002C31.9943 55.8002 32.8002 54.9943 32.8002 54.0002C32.8002 53.0061 31.9943 52.2002 31.0002 52.2002C30.0061 52.2002 29.2002 53.0061 29.2002 54.0002Z" fill="white"/>
</mask>
<g mask="url(#mask1_217_79)">
<g filter="url(#filter1_d_217_79)">
<path d="M32.2155 54.7489C32.0657 54.6488 31.8969 54.589 31.7345 54.5149L31.6449 54.476C31.4937 54.4058 31.4375 54.2665 31.5038 54.1113C31.5459 54.013 31.5812 53.9133 31.5992 53.8078C31.6028 53.7869 31.6071 53.7693 31.6373 53.7718C31.6924 53.7765 31.723 53.7423 31.7385 53.6944C31.7666 53.608 31.7936 53.5209 31.8191 53.4338C31.8289 53.4007 31.8299 53.3657 31.8227 53.3315C31.8159 53.297 31.7983 53.266 31.7619 53.2639C31.7209 53.2613 31.7144 53.2426 31.7176 53.2088C31.723 53.1508 31.7245 53.0921 31.7324 53.0345C31.7867 52.6342 31.5139 52.2703 31.1143 52.2109V52.2109C31.0912 52.2073 31.0688 52.1997 31.0454 52.1997H31.0034C30.9535 52.1997 30.9007 52.2064 30.8522 52.2177V52.2177C30.4641 52.3073 30.2276 52.6533 30.2808 53.0543C30.2884 53.1105 30.296 53.1667 30.2934 53.2235C30.2924 53.2444 30.2888 53.2588 30.2628 53.2617C30.2056 53.2682 30.188 53.3092 30.1854 53.36C30.1818 53.4305 30.2143 53.4932 30.2315 53.5594C30.2409 53.5958 30.256 53.6307 30.2657 53.6671C30.2823 53.7286 30.31 53.7758 30.3834 53.7725C30.4047 53.7715 30.4083 53.7855 30.4112 53.8021C30.4321 53.9137 30.4666 54.0209 30.5134 54.1246C30.5523 54.2107 30.5357 54.2956 30.4972 54.3781C30.4742 54.4277 30.4277 54.4472 30.3827 54.4684C30.2287 54.5401 30.0692 54.5987 29.9183 54.6772C29.8697 54.7024 29.8226 54.7312 29.7779 54.7629C29.7059 54.8137 29.6526 54.8799 29.6278 54.9659C29.5788 55.1344 29.559 55.3058 29.5936 55.4797C29.6166 55.5959 29.6868 55.6719 29.8006 55.7065C29.9147 55.741 30.0321 55.7554 30.1498 55.7673C30.3089 55.7828 30.4684 55.7882 30.6279 55.7932V55.7932C30.6618 55.794 30.6953 55.8004 30.7293 55.8004H31.3177C31.4512 55.7932 31.5851 55.7864 31.7187 55.7785C31.8713 55.7695 32.0233 55.754 32.1723 55.7183C32.3332 55.6795 32.4088 55.5909 32.4207 55.4271C32.4319 55.2698 32.4146 55.115 32.3746 54.9627C32.3505 54.8695 32.2943 54.8018 32.2155 54.7489Z" fill="white"/>
</g>
</g>
<rect x="52" y="49" width="35" height="20" rx="1" fill="white"/>
<path d="M85 63H54V67H85V63Z" fill="#58707F"/>
<path d="M85 58H54V62H85V58Z" fill="#58707F"/>
<path d="M69 57C70.6569 57 72 55.6569 72 54C72 52.3431 70.6569 51 69 51C67.3431 51 66 52.3431 66 54C66 55.6569 67.3431 57 69 57Z" fill="#58707F"/>
<mask id="mask2_217_79" style="mask-type:luminance" maskUnits="userSpaceOnUse" x="67" y="52" width="4" height="4">
<path d="M67.2002 54.0002C67.2002 54.9943 68.0061 55.8002 69.0002 55.8002C69.9943 55.8002 70.8002 54.9943 70.8002 54.0002C70.8002 53.0061 69.9943 52.2002 69.0002 52.2002C68.0061 52.2002 67.2002 53.0061 67.2002 54.0002Z" fill="white"/>
</mask>
<g mask="url(#mask2_217_79)">
<g filter="url(#filter2_d_217_79)">
<path d="M70.2155 54.7489C70.0657 54.6488 69.8969 54.589 69.7345 54.5149L69.6449 54.476C69.4937 54.4058 69.4375 54.2665 69.5038 54.1113C69.5459 54.013 69.5812 53.9133 69.5992 53.8078C69.6028 53.7869 69.6071 53.7693 69.6373 53.7718C69.6924 53.7765 69.723 53.7423 69.7385 53.6944C69.7666 53.608 69.7936 53.5209 69.8191 53.4338C69.8289 53.4007 69.8299 53.3657 69.8227 53.3315C69.8159 53.297 69.7983 53.266 69.7619 53.2639C69.7209 53.2613 69.7144 53.2426 69.7176 53.2088C69.723 53.1508 69.7245 53.0921 69.7324 53.0345C69.7867 52.6342 69.5139 52.2703 69.1143 52.2109V52.2109C69.0912 52.2073 69.0688 52.1997 69.0454 52.1997H69.0034C68.9535 52.1997 68.9007 52.2064 68.8522 52.2177V52.2177C68.4641 52.3073 68.2276 52.6533 68.2808 53.0543C68.2884 53.1105 68.296 53.1667 68.2934 53.2235C68.2924 53.2444 68.2888 53.2588 68.2628 53.2617C68.2056 53.2682 68.188 53.3092 68.1854 53.36C68.1818 53.4305 68.2143 53.4932 68.2315 53.5594C68.2409 53.5958 68.256 53.6307 68.2657 53.6671C68.2823 53.7286 68.31 53.7758 68.3834 53.7725C68.4047 53.7715 68.4083 53.7855 68.4112 53.8021C68.4321 53.9137 68.4666 54.0209 68.5134 54.1246C68.5523 54.2107 68.5357 54.2956 68.4972 54.3781C68.4742 54.4277 68.4277 54.4472 68.3827 54.4684C68.2287 54.5401 68.0692 54.5987 67.9183 54.6772C67.8697 54.7024 67.8226 54.7312 67.7779 54.7629C67.7059 54.8137 67.6526 54.8799 67.6278 54.9659C67.5788 55.1344 67.559 55.3058 67.5936 55.4797C67.6166 55.5959 67.6868 55.6719 67.8006 55.7065C67.9147 55.741 68.0321 55.7554 68.1498 55.7673C68.3089 55.7828 68.4684 55.7882 68.6279 55.7932V55.7932C68.6618 55.794 68.6953 55.8004 68.7293 55.8004H69.3177C69.4512 55.7932 69.5851 55.7864 69.7187 55.7785C69.8713 55.7695 70.0233 55.754 70.1723 55.7183C70.3332 55.6795 70.4088 55.5909 70.4207 55.4271C70.4319 55.2698 70.4146 55.115 70.3746 54.9627C70.3505 54.8695 70.2943 54.8018 70.2155 54.7489Z" fill="white"/>
</g>
</g>
<rect x="52" y="26" width="35" height="20" rx="1" fill="white"/>
<path d="M85 40H54V44H85V40Z" fill="#58707F"/>
<path d="M85 35H54V39H85V35Z" fill="#58707F"/>
<path d="M69 34C70.6569 34 72 32.6569 72 31C72 29.3431 70.6569 28 69 28C67.3431 28 66 29.3431 66 31C66 32.6569 67.3431 34 69 34Z" fill="#58707F"/>
<mask id="mask3_217_79" style="mask-type:luminance" maskUnits="userSpaceOnUse" x="67" y="29" width="4" height="4">
<path d="M67.2002 31.0002C67.2002 31.9943 68.0061 32.8002 69.0002 32.8002C69.9943 32.8002 70.8002 31.9943 70.8002 31.0002C70.8002 30.0061 69.9943 29.2002 69.0002 29.2002C68.0061 29.2002 67.2002 30.0061 67.2002 31.0002Z" fill="white"/>
</mask>
<g mask="url(#mask3_217_79)">
<g filter="url(#filter3_d_217_79)">
<path d="M70.2155 31.7489C70.0657 31.6488 69.8969 31.589 69.7345 31.5149L69.6449 31.476C69.4937 31.4058 69.4375 31.2665 69.5038 31.1113C69.5459 31.013 69.5812 30.9133 69.5992 30.8078C69.6028 30.7869 69.6071 30.7693 69.6373 30.7718C69.6924 30.7765 69.723 30.7423 69.7385 30.6944C69.7666 30.608 69.7936 30.5209 69.8191 30.4338C69.8289 30.4007 69.8299 30.3657 69.8227 30.3315C69.8159 30.297 69.7983 30.266 69.7619 30.2639C69.7209 30.2613 69.7144 30.2426 69.7176 30.2088C69.723 30.1508 69.7245 30.0921 69.7324 30.0345C69.7867 29.6342 69.5139 29.2703 69.1143 29.2109V29.2109C69.0912 29.2073 69.0688 29.1997 69.0454 29.1997H69.0034C68.9535 29.1997 68.9007 29.2064 68.8522 29.2177V29.2177C68.4641 29.3073 68.2276 29.6533 68.2808 30.0543C68.2884 30.1105 68.296 30.1667 68.2934 30.2235C68.2924 30.2444 68.2888 30.2588 68.2628 30.2617C68.2056 30.2682 68.188 30.3092 68.1854 30.36C68.1818 30.4305 68.2143 30.4932 68.2315 30.5594C68.2409 30.5958 68.256 30.6307 68.2657 30.6671C68.2823 30.7286 68.31 30.7758 68.3834 30.7725C68.4047 30.7715 68.4083 30.7855 68.4112 30.8021C68.4321 30.9137 68.4666 31.0209 68.5134 31.1246C68.5523 31.2107 68.5357 31.2956 68.4972 31.3781C68.4742 31.4277 68.4277 31.4472 68.3827 31.4684C68.2287 31.5401 68.0692 31.5987 67.9183 31.6772C67.8697 31.7024 67.8226 31.7312 67.7779 31.7629C67.7059 31.8137 67.6526 31.8799 67.6278 31.9659C67.5788 32.1344 67.559 32.3058 67.5936 32.4797C67.6166 32.5959 67.6868 32.6719 67.8006 32.7065C67.9147 32.741 68.0321 32.7554 68.1498 32.7673C68.3089 32.7828 68.4684 32.7882 68.6279 32.7932V32.7932C68.6618 32.794 68.6953 32.8004 68.7293 32.8004H69.3177C69.4512 32.7932 69.5851 32.7864 69.7187 32.7785C69.8713 32.7695 70.0233 32.754 70.1723 32.7183C70.3332 32.6795 70.4088 32.5909 70.4207 32.4271C70.4319 32.2698 70.4146 32.115 70.3746 31.9627C70.3505 31.8695 70.2943 31.8018 70.2155 31.7489Z" fill="white"/>
</g>
</g>
<path d="M12 10C12 8.89543 12.8954 8 14 8H87C88.1046 8 89 8.89543 89 10V23H12V10Z" fill="#58707F"/>
<path d="M86 13H15V19H86V13Z" fill="#F1F1F1"/>
<defs>
<filter id="filter0_d_217_79" x="25.5762" y="29.1997" width="10.8477" height="11.6006" filterUnits="userSpaceOnUse" color-interpolation-filters="sRGB">
<feFlood flood-opacity="0" result="BackgroundImageFix"/>
<feColorMatrix in="SourceAlpha" type="matrix" values="0 0 0 0 0 0 0 0 0 0 0 0 0 0 0 0 0 0 127 0" result="hardAlpha"/>
<feOffset dy="4"/>
<feGaussianBlur stdDeviation="2"/>
<feComposite in2="hardAlpha" operator="out"/>
<feColorMatrix type="matrix" values="0 0 0 0 0 0 0 0 0 0 0 0 0 0 0 0 0 0 0.25 0"/>
<feBlend mode="normal" in2="BackgroundImageFix" result="effect1_dropShadow_217_79"/>
<feBlend mode="normal" in="SourceGraphic" in2="effect1_dropShadow_217_79" result="shape"/>
</filter>
<filter id="filter1_d_217_79" x="25.5762" y="52.1997" width="10.8477" height="11.6006" filterUnits="userSpaceOnUse" color-interpolation-filters="sRGB">
<feFlood flood-opacity="0" result="BackgroundImageFix"/>
<feColorMatrix in="SourceAlpha" type="matrix" values="0 0 0 0 0 0 0 0 0 0 0 0 0 0 0 0 0 0 127 0" result="hardAlpha"/>
<feOffset dy="4"/>
<feGaussianBlur stdDeviation="2"/>
<feComposite in2="hardAlpha" operator="out"/>
<feColorMatrix type="matrix" values="0 0 0 0 0 0 0 0 0 0 0 0 0 0 0 0 0 0 0.25 0"/>
<feBlend mode="normal" in2="BackgroundImageFix" result="effect1_dropShadow_217_79"/>
<feBlend mode="normal" in="SourceGraphic" in2="effect1_dropShadow_217_79" result="shape"/>
</filter>
<filter id="filter2_d_217_79" x="63.5762" y="52.1997" width="10.8477" height="11.6006" filterUnits="userSpaceOnUse" color-interpolation-filters="sRGB">
<feFlood flood-opacity="0" result="BackgroundImageFix"/>
<feColorMatrix in="SourceAlpha" type="matrix" values="0 0 0 0 0 0 0 0 0 0 0 0 0 0 0 0 0 0 127 0" result="hardAlpha"/>
<feOffset dy="4"/>
<feGaussianBlur stdDeviation="2"/>
<feComposite in2="hardAlpha" operator="out"/>
<feColorMatrix type="matrix" values="0 0 0 0 0 0 0 0 0 0 0 0 0 0 0 0 0 0 0.25 0"/>
<feBlend mode="normal" in2="BackgroundImageFix" result="effect1_dropShadow_217_79"/>
<feBlend mode="normal" in="SourceGraphic" in2="effect1_dropShadow_217_79" result="shape"/>
</filter>
<filter id="filter3_d_217_79" x="63.5762" y="29.1997" width="10.8477" height="11.6006" filterUnits="userSpaceOnUse" color-interpolation-filters="sRGB">
<feFlood flood-opacity="0" result="BackgroundImageFix"/>
<feColorMatrix in="SourceAlpha" type="matrix" values="0 0 0 0 0 0 0 0 0 0 0 0 0 0 0 0 0 0 127 0" result="hardAlpha"/>
<feOffset dy="4"/>
<feGaussianBlur stdDeviation="2"/>
<feComposite in2="hardAlpha" operator="out"/>
<feColorMatrix type="matrix" values="0 0 0 0 0 0 0 0 0 0 0 0 0 0 0 0 0 0 0.25 0"/>
<feBlend mode="normal" in2="BackgroundImageFix" result="effect1_dropShadow_217_79"/>
<feBlend mode="normal" in="SourceGraphic" in2="effect1_dropShadow_217_79" result="shape"/>
</filter>
</defs>
</svg>
