<svg width="100" height="80" viewBox="0 0 100 80" fill="none" xmlns="http://www.w3.org/2000/svg">
<path fill-rule="evenodd" clip-rule="evenodd" d="M50 67C64.9117 67 77 54.9117 77 40C77 25.0883 64.9117 13 50 13C35.0883 13 23 25.0883 23 40C23 54.9117 35.0883 67 50 67ZM51.35 28.525C51.35 27.7794 50.7456 27.175 50 27.175C49.2544 27.175 48.65 27.7794 48.65 28.525V36.625C48.65 37.3706 49.2544 37.975 50 37.975C50.7456 37.975 51.35 37.3706 51.35 36.625V28.525ZM41.5994 32.5368C42.0685 31.9572 41.9788 31.1072 41.3992 30.6382C40.8196 30.1691 39.9696 30.2588 39.5006 30.8384C37.6246 33.1567 36.5 36.1113 36.5 39.325C36.5 46.7808 42.5442 52.825 50 52.825C57.4558 52.825 63.5 46.7808 63.5 39.325C63.5 36.1113 62.3754 33.1567 60.4994 30.8384C60.0304 30.2588 59.1804 30.1691 58.6008 30.6382C58.0212 31.1072 57.9315 31.9572 58.4006 32.5368C59.9018 34.392 60.8 36.7518 60.8 39.325C60.8 45.2897 55.9647 50.125 50 50.125C44.0353 50.125 39.2 45.2897 39.2 39.325C39.2 36.7518 40.0982 34.392 41.5994 32.5368Z" fill="#58707F"/>
</svg>
