<svg width="100" height="80" viewBox="0 0 100 80" fill="none" xmlns="http://www.w3.org/2000/svg">
<rect x="10" y="31" width="80" height="18" rx="9" fill="#58707F"/>
<rect x="29" y="37" width="54" height="5" fill="#F1F1F1"/>
<circle cx="19" cy="40" r="6" fill="white"/>
<path d="M15.6667 39.914C15.6667 41.7074 17.132 43.1614 18.9394 43.1614C19.5134 43.1614 20.052 43.0147 20.5214 42.7574L22.3334 43.3334L21.7427 41.5907C22.0407 41.1014 22.212 40.5274 22.212 39.914C22.212 38.1207 20.7467 36.6667 18.9394 36.6667C17.132 36.6667 15.6667 38.1207 15.6667 39.914ZM18.9394 37.1834C20.4567 37.1834 21.6907 38.408 21.6907 39.914C21.6907 40.5114 21.496 41.0647 21.1667 41.5147L21.5107 42.5287L20.4534 42.1927C20.0187 42.478 19.498 42.6447 18.9394 42.6447C17.422 42.6447 16.188 41.42 16.188 39.9147C16.188 38.4094 17.422 37.1834 18.9394 37.1834ZM17.2867 40.662C17.3067 40.6287 17.3607 40.6087 17.4407 40.5694C17.5207 40.5294 17.9154 40.3367 17.9887 40.3107C18.0627 40.284 18.116 40.2707 18.1694 40.3507C18.2227 40.4307 18.3767 40.6094 18.4234 40.6627C18.47 40.716 18.5167 40.7227 18.5974 40.6827C18.6774 40.6427 18.936 40.5587 19.2427 40.2874C19.4814 40.076 19.642 39.816 19.6887 39.736C19.7354 39.656 19.6934 39.6127 19.6534 39.5734C19.6174 39.5374 19.5734 39.4807 19.5327 39.434C19.492 39.3874 19.4794 39.354 19.4527 39.3014C19.426 39.2487 19.4394 39.202 19.4594 39.162C19.4794 39.122 19.64 38.7307 19.7067 38.5714C19.7734 38.412 19.84 38.4387 19.8874 38.4387C19.934 38.4387 19.9874 38.432 20.0414 38.432C20.0947 38.432 20.182 38.452 20.2554 38.5314C20.3287 38.6107 20.536 38.804 20.536 39.1954C20.536 39.5874 20.2487 39.9654 20.2087 40.0187C20.1687 40.072 19.654 40.9014 18.838 41.22C18.022 41.5387 18.022 41.432 17.8754 41.4194C17.7287 41.406 17.4007 41.2267 17.334 41.0407C17.2674 40.8547 17.2674 40.6954 17.2867 40.662Z" fill="#58707F"/>
<path d="M15.6667 39.914C15.6667 41.7074 17.132 43.1614 18.9394 43.1614C19.5134 43.1614 20.052 43.0147 20.5214 42.7574L22.3334 43.3334L21.7427 41.5907C22.0407 41.1014 22.212 40.5274 22.212 39.914C22.212 38.1207 20.7467 36.6667 18.9394 36.6667C17.132 36.6667 15.6667 38.1207 15.6667 39.914ZM18.9394 37.1834C20.4567 37.1834 21.6907 38.408 21.6907 39.914C21.6907 40.5114 21.496 41.0647 21.1667 41.5147L21.5107 42.5287L20.4534 42.1927C20.0187 42.478 19.498 42.6447 18.9394 42.6447C17.422 42.6447 16.188 41.42 16.188 39.9147C16.188 38.4094 17.422 37.1834 18.9394 37.1834ZM17.2867 40.662C17.3067 40.6287 17.3607 40.6087 17.4407 40.5694C17.5207 40.5294 17.9154 40.3367 17.9887 40.3107C18.0627 40.284 18.116 40.2707 18.1694 40.3507C18.2227 40.4307 18.3767 40.6094 18.4234 40.6627C18.47 40.716 18.5167 40.7227 18.5974 40.6827C18.6774 40.6427 18.936 40.5587 19.2427 40.2874C19.4814 40.076 19.642 39.816 19.6887 39.736C19.7354 39.656 19.6934 39.6127 19.6534 39.5734C19.6174 39.5374 19.5734 39.4807 19.5327 39.434C19.492 39.3874 19.4794 39.354 19.4527 39.3014C19.426 39.2487 19.4394 39.202 19.4594 39.162C19.4794 39.122 19.64 38.7307 19.7067 38.5714C19.7734 38.412 19.84 38.4387 19.8874 38.4387C19.934 38.4387 19.9874 38.432 20.0414 38.432C20.0947 38.432 20.182 38.452 20.2554 38.5314C20.3287 38.6107 20.536 38.804 20.536 39.1954C20.536 39.5874 20.2487 39.9654 20.2087 40.0187C20.1687 40.072 19.654 40.9014 18.838 41.22C18.022 41.5387 18.022 41.432 17.8754 41.4194C17.7287 41.406 17.4007 41.2267 17.334 41.0407C17.2674 40.8547 17.2674 40.6954 17.2867 40.662Z" fill="#58707F"/>
</svg>
