<svg width="100" height="80" viewBox="0 0 100 80" fill="none" xmlns="http://www.w3.org/2000/svg">
<rect x="5" y="28" width="90" height="25" rx="12.5" fill="#58707F"/>
<path d="M33.4425 43V37.9091H34.5188V40.0096H36.7038V37.9091H37.7777V43H36.7038V40.897H34.5188V43H33.4425ZM40.3704 43.0746C39.9843 43.0746 39.6503 42.9925 39.3686 42.8285C39.0885 42.6628 38.8723 42.4324 38.7198 42.1374C38.5674 41.8408 38.4911 41.4969 38.4911 41.1058C38.4911 40.7114 38.5674 40.3667 38.7198 40.0717C38.8723 39.7751 39.0885 39.5447 39.3686 39.3807C39.6503 39.215 39.9843 39.1321 40.3704 39.1321C40.7565 39.1321 41.0896 39.215 41.3697 39.3807C41.6514 39.5447 41.8685 39.7751 42.021 40.0717C42.1734 40.3667 42.2496 40.7114 42.2496 41.1058C42.2496 41.4969 42.1734 41.8408 42.021 42.1374C41.8685 42.4324 41.6514 42.6628 41.3697 42.8285C41.0896 42.9925 40.7565 43.0746 40.3704 43.0746ZM40.3754 42.2543C40.551 42.2543 40.6977 42.2045 40.8153 42.1051C40.933 42.004 41.0217 41.8665 41.0813 41.6925C41.1426 41.5185 41.1733 41.3204 41.1733 41.0984C41.1733 40.8763 41.1426 40.6783 41.0813 40.5043C41.0217 40.3303 40.933 40.1927 40.8153 40.0916C40.6977 39.9905 40.551 39.94 40.3754 39.94C40.198 39.94 40.0489 39.9905 39.9279 40.0916C39.8086 40.1927 39.7183 40.3303 39.657 40.5043C39.5973 40.6783 39.5675 40.8763 39.5675 41.0984C39.5675 41.3204 39.5973 41.5185 39.657 41.6925C39.7183 41.8665 39.8086 42.004 39.9279 42.1051C40.0489 42.2045 40.198 42.2543 40.3754 42.2543ZM43.5957 43L42.5566 39.1818H43.628L44.2196 41.7472H44.2544L44.8709 39.1818H45.9224L46.5488 41.7322H46.5811L47.1628 39.1818H48.2317L47.1951 43H46.074L45.4178 40.5987H45.3706L44.7143 43H43.5957ZM50.4366 37.9091H51.764L53.166 41.3295H53.2257L54.6277 37.9091H55.9551V43H54.911V39.6864H54.8688L53.5513 42.9751H52.8404L51.5229 39.674H51.4806V43H50.4366V37.9091ZM57.9108 43.0721C57.6672 43.0721 57.4501 43.0298 57.2595 42.9453C57.0689 42.8591 56.9181 42.7324 56.8071 42.565C56.6977 42.396 56.643 42.1855 56.643 41.9336C56.643 41.7215 56.682 41.5433 56.7599 41.3991C56.8377 41.255 56.9438 41.139 57.078 41.0511C57.2123 40.9633 57.3647 40.897 57.5354 40.8523C57.7078 40.8075 57.8884 40.776 58.0773 40.7578C58.2994 40.7346 58.4784 40.7131 58.6143 40.6932C58.7501 40.6716 58.8488 40.6402 58.9101 40.5987C58.9714 40.5573 59.002 40.496 59.002 40.4148V40.3999C59.002 40.2424 58.9523 40.1206 58.8529 40.0344C58.7551 39.9483 58.6159 39.9052 58.4353 39.9052C58.2447 39.9052 58.0931 39.9474 57.9804 40.032C57.8677 40.1148 57.7931 40.2192 57.7567 40.3452L56.7773 40.2656C56.827 40.0336 56.9247 39.8331 57.0706 39.6641C57.2164 39.4934 57.4045 39.3625 57.6349 39.2713C57.8669 39.1785 58.1353 39.1321 58.4403 39.1321C58.6524 39.1321 58.8554 39.157 59.0493 39.2067C59.2448 39.2564 59.418 39.3335 59.5688 39.4379C59.7213 39.5423 59.8414 39.6765 59.9292 39.8406C60.0171 40.003 60.061 40.1977 60.061 40.4247V43H59.0567V42.4705H59.0269C58.9656 42.5898 58.8836 42.6951 58.7808 42.7862C58.6781 42.8757 58.5546 42.9461 58.4104 42.9975C58.2662 43.0472 58.0997 43.0721 57.9108 43.0721ZM58.214 42.3413C58.3698 42.3413 58.5074 42.3106 58.6267 42.2493C58.746 42.1863 58.8396 42.1018 58.9076 41.9957C58.9755 41.8897 59.0095 41.7695 59.0095 41.6353V41.2301C58.9764 41.2517 58.9308 41.2715 58.8728 41.2898C58.8164 41.3063 58.7526 41.3221 58.6814 41.337C58.6101 41.3503 58.5389 41.3627 58.4676 41.3743C58.3963 41.3842 58.3317 41.3933 58.2737 41.4016C58.1494 41.4199 58.0409 41.4489 57.9481 41.4886C57.8553 41.5284 57.7832 41.5823 57.7318 41.6502C57.6804 41.7165 57.6547 41.7994 57.6547 41.8988C57.6547 42.043 57.7069 42.1532 57.8113 42.2294C57.9174 42.304 58.0516 42.3413 58.214 42.3413ZM61.3996 44.4318C61.2654 44.4318 61.1394 44.421 61.0218 44.3995C60.9057 44.3796 60.8096 44.3539 60.7334 44.3224L60.972 43.532C61.0963 43.5701 61.2082 43.5908 61.3076 43.5941C61.4087 43.5974 61.4957 43.5742 61.5686 43.5245C61.6432 43.4748 61.7037 43.3903 61.7501 43.271L61.8122 43.1094L60.4426 39.1818H61.5562L62.3467 41.9858H62.3865L63.1844 39.1818H64.3055L62.8215 43.4126C62.7502 43.6181 62.6533 43.7971 62.5306 43.9496C62.4097 44.1037 62.2564 44.2222 62.0708 44.305C61.8852 44.3896 61.6614 44.4318 61.3996 44.4318ZM67.5637 37.9091V43H66.4874V37.9091H67.5637ZM70.0694 43V37.9091H71.1458V40.0096H73.3308V37.9091H74.4047V43H73.3308V40.897H71.1458V43H70.0694ZM77.0123 43.0746C76.6195 43.0746 76.2814 42.995 75.998 42.8359C75.7163 42.6752 75.4992 42.4482 75.3468 42.1548C75.1943 41.8598 75.1181 41.511 75.1181 41.1083C75.1181 40.7156 75.1943 40.3709 75.3468 40.0742C75.4992 39.7776 75.7138 39.5464 75.9906 39.3807C76.269 39.215 76.5955 39.1321 76.97 39.1321C77.2219 39.1321 77.4564 39.1727 77.6735 39.2539C77.8922 39.3335 78.0828 39.4536 78.2452 39.6143C78.4093 39.7751 78.5369 39.9773 78.628 40.2209C78.7192 40.4628 78.7647 40.7462 78.7647 41.071V41.3619H75.5407V40.7056H77.7679C77.7679 40.5531 77.7348 40.4181 77.6685 40.3004C77.6022 40.1828 77.5102 40.0908 77.3926 40.0245C77.2766 39.9566 77.1415 39.9226 76.9874 39.9226C76.8266 39.9226 76.6841 39.9599 76.5598 40.0344C76.4372 40.1074 76.3411 40.206 76.2715 40.3303C76.2019 40.4529 76.1663 40.5896 76.1646 40.7404V41.3643C76.1646 41.5533 76.1994 41.7165 76.269 41.854C76.3403 41.9916 76.4405 42.0977 76.5698 42.1722C76.699 42.2468 76.8523 42.2841 77.0297 42.2841C77.1473 42.2841 77.255 42.2675 77.3528 42.2344C77.4506 42.2012 77.5343 42.1515 77.6039 42.0852C77.6735 42.0189 77.7265 41.9377 77.763 41.8416L78.7424 41.9062C78.6926 42.1416 78.5907 42.3471 78.4366 42.5227C78.2842 42.6967 78.0869 42.8326 77.845 42.9304C77.6047 43.0265 77.3271 43.0746 77.0123 43.0746ZM80.5147 37.9091V43H79.4558V37.9091H80.5147ZM81.363 44.4318V39.1818H82.407V39.8232H82.4543C82.5007 39.7204 82.5678 39.616 82.6556 39.5099C82.7451 39.4022 82.8611 39.3127 83.0036 39.2415C83.1478 39.1686 83.3268 39.1321 83.5406 39.1321C83.819 39.1321 84.0758 39.205 84.3112 39.3509C84.5465 39.495 84.7346 39.7129 84.8754 40.0046C85.0163 40.2946 85.0867 40.6584 85.0867 41.0959C85.0867 41.5218 85.018 41.8814 84.8804 42.1747C84.7445 42.4664 84.5589 42.6876 84.3236 42.8384C84.0899 42.9876 83.8281 43.0621 83.5381 43.0621C83.3326 43.0621 83.1578 43.0282 83.0136 42.9602C82.8711 42.8923 82.7542 42.8069 82.6631 42.7042C82.5719 42.5998 82.5023 42.4946 82.4543 42.3885H82.422V44.4318H81.363ZM82.3996 41.0909C82.3996 41.3179 82.4311 41.516 82.4941 41.685C82.557 41.854 82.6482 41.9858 82.7675 42.0803C82.8868 42.1731 83.0318 42.2195 83.2025 42.2195C83.3749 42.2195 83.5207 42.1722 83.64 42.0778C83.7593 41.9817 83.8496 41.8491 83.911 41.68C83.9739 41.5094 84.0054 41.313 84.0054 41.0909C84.0054 40.8705 83.9748 40.6766 83.9134 40.5092C83.8521 40.3419 83.7618 40.2109 83.6425 40.1165C83.5232 40.022 83.3765 39.9748 83.2025 39.9748C83.0302 39.9748 82.8843 40.0204 82.765 40.1115C82.6473 40.2027 82.557 40.3319 82.4941 40.4993C82.4311 40.6667 82.3996 40.8639 82.3996 41.0909ZM86.7025 41.4737V41.3892C86.7042 41.0992 86.7298 40.868 86.7796 40.6957C86.8309 40.5233 86.9055 40.3841 87.0033 40.2781C87.1011 40.172 87.2187 40.0759 87.3563 39.9897C87.459 39.9234 87.551 39.8546 87.6322 39.7834C87.7134 39.7121 87.778 39.6334 87.8261 39.5472C87.8741 39.4594 87.8982 39.3616 87.8982 39.2539C87.8982 39.1396 87.8708 39.0393 87.8161 38.9531C87.7615 38.867 87.6877 38.8007 87.5949 38.7543C87.5038 38.7079 87.4027 38.6847 87.2916 38.6847C87.1839 38.6847 87.082 38.7087 86.9859 38.7567C86.8898 38.8031 86.8111 38.8728 86.7497 38.9656C86.6884 39.0567 86.6553 39.1702 86.6503 39.3061H85.6361C85.6444 38.9747 85.7239 38.7012 85.8747 38.4858C86.0255 38.2687 86.2252 38.1071 86.4738 38.0011C86.7224 37.8933 86.9967 37.8395 87.2966 37.8395C87.6264 37.8395 87.9181 37.8942 88.1716 38.0036C88.4252 38.1113 88.624 38.2679 88.7682 38.4734C88.9124 38.6789 88.9845 38.9266 88.9845 39.2166C88.9845 39.4105 88.9521 39.5829 88.8875 39.7337C88.8245 39.8828 88.7359 40.0154 88.6215 40.1314C88.5072 40.2457 88.3721 40.3493 88.2164 40.4421C88.0854 40.52 87.9777 40.6012 87.8932 40.6857C87.8103 40.7702 87.7482 40.868 87.7068 40.979C87.667 41.0901 87.6463 41.2268 87.6446 41.3892V41.4737H86.7025ZM87.1947 43.0646C87.029 43.0646 86.8873 43.0066 86.7696 42.8906C86.6536 42.773 86.5964 42.6321 86.5981 42.468C86.5964 42.3056 86.6536 42.1664 86.7696 42.0504C86.8873 41.9344 87.029 41.8764 87.1947 41.8764C87.3521 41.8764 87.4905 41.9344 87.6098 42.0504C87.7291 42.1664 87.7896 42.3056 87.7913 42.468C87.7896 42.5774 87.7606 42.6777 87.7043 42.7688C87.6496 42.8583 87.5775 42.9304 87.488 42.9851C87.3985 43.0381 87.3008 43.0646 87.1947 43.0646Z" fill="white"/>
<circle cx="20" cy="41" r="9" fill="white"/>
<path d="M15 40.871C15 43.561 17.198 45.742 19.909 45.742C20.77 45.742 21.578 45.522 22.282 45.136L25 46L24.114 43.386C24.561 42.652 24.818 41.791 24.818 40.871C24.818 38.181 22.62 36 19.909 36C17.198 36 15 38.181 15 40.871ZM19.909 36.775C22.185 36.775 24.036 38.612 24.036 40.871C24.036 41.767 23.744 42.597 23.25 43.272L23.766 44.793L22.18 44.289C21.528 44.717 20.747 44.967 19.909 44.967C17.633 44.967 15.782 43.13 15.782 40.872C15.782 38.614 17.633 36.775 19.909 36.775ZM17.43 41.993C17.46 41.943 17.541 41.913 17.661 41.854C17.781 41.794 18.373 41.505 18.483 41.466C18.594 41.426 18.674 41.406 18.754 41.526C18.834 41.646 19.065 41.914 19.135 41.994C19.205 42.074 19.275 42.084 19.396 42.024C19.516 41.964 19.904 41.838 20.364 41.431C20.722 41.114 20.963 40.724 21.033 40.604C21.103 40.484 21.04 40.419 20.98 40.36C20.926 40.306 20.86 40.221 20.799 40.151C20.738 40.081 20.719 40.031 20.679 39.952C20.639 39.873 20.659 39.803 20.689 39.743C20.719 39.683 20.96 39.096 21.06 38.857C21.16 38.618 21.26 38.658 21.331 38.658C21.401 38.658 21.481 38.648 21.562 38.648C21.642 38.648 21.773 38.678 21.883 38.797C21.993 38.916 22.304 39.206 22.304 39.793C22.304 40.381 21.873 40.948 21.813 41.028C21.753 41.108 20.981 42.352 19.757 42.83C18.533 43.308 18.533 43.148 18.313 43.129C18.093 43.109 17.601 42.84 17.501 42.561C17.401 42.282 17.401 42.043 17.43 41.993Z" fill="#58707F"/>
<path d="M15 40.871C15 43.561 17.198 45.742 19.909 45.742C20.77 45.742 21.578 45.522 22.282 45.136L25 46L24.114 43.386C24.561 42.652 24.818 41.791 24.818 40.871C24.818 38.181 22.62 36 19.909 36C17.198 36 15 38.181 15 40.871ZM19.909 36.775C22.185 36.775 24.036 38.612 24.036 40.871C24.036 41.767 23.744 42.597 23.25 43.272L23.766 44.793L22.18 44.289C21.528 44.717 20.747 44.967 19.909 44.967C17.633 44.967 15.782 43.13 15.782 40.872C15.782 38.614 17.633 36.775 19.909 36.775ZM17.43 41.993C17.46 41.943 17.541 41.913 17.661 41.854C17.781 41.794 18.373 41.505 18.483 41.466C18.594 41.426 18.674 41.406 18.754 41.526C18.834 41.646 19.065 41.914 19.135 41.994C19.205 42.074 19.275 42.084 19.396 42.024C19.516 41.964 19.904 41.838 20.364 41.431C20.722 41.114 20.963 40.724 21.033 40.604C21.103 40.484 21.04 40.419 20.98 40.36C20.926 40.306 20.86 40.221 20.799 40.151C20.738 40.081 20.719 40.031 20.679 39.952C20.639 39.873 20.659 39.803 20.689 39.743C20.719 39.683 20.96 39.096 21.06 38.857C21.16 38.618 21.26 38.658 21.331 38.658C21.401 38.658 21.481 38.648 21.562 38.648C21.642 38.648 21.773 38.678 21.883 38.797C21.993 38.916 22.304 39.206 22.304 39.793C22.304 40.381 21.873 40.948 21.813 41.028C21.753 41.108 20.981 42.352 19.757 42.83C18.533 43.308 18.533 43.148 18.313 43.129C18.093 43.109 17.601 42.84 17.501 42.561C17.401 42.282 17.401 42.043 17.43 41.993Z" fill="#58707F"/>
<rect x="5" y="28" width="90" height="25" rx="12.5" fill="#58707F"/>
<path d="M29.7045 43V37.1818H30.4091V39.7727H33.5114V37.1818H34.2159V43H33.5114V40.3977H30.4091V43H29.7045ZM37.3082 43.0909C36.9143 43.0909 36.5687 42.9972 36.2713 42.8097C35.9759 42.6222 35.7448 42.3598 35.5781 42.0227C35.4134 41.6856 35.331 41.2917 35.331 40.8409C35.331 40.3864 35.4134 39.9896 35.5781 39.6506C35.7448 39.3116 35.9759 39.0483 36.2713 38.8608C36.5687 38.6733 36.9143 38.5795 37.3082 38.5795C37.7022 38.5795 38.0469 38.6733 38.3423 38.8608C38.6397 39.0483 38.8707 39.3116 39.0355 39.6506C39.2022 39.9896 39.2855 40.3864 39.2855 40.8409C39.2855 41.2917 39.2022 41.6856 39.0355 42.0227C38.8707 42.3598 38.6397 42.6222 38.3423 42.8097C38.0469 42.9972 37.7022 43.0909 37.3082 43.0909ZM37.3082 42.4886C37.6075 42.4886 37.8537 42.4119 38.0469 42.2585C38.2401 42.1051 38.383 41.9034 38.4759 41.6534C38.5687 41.4034 38.6151 41.1326 38.6151 40.8409C38.6151 40.5492 38.5687 40.2775 38.4759 40.0256C38.383 39.7737 38.2401 39.5701 38.0469 39.4148C37.8537 39.2595 37.6075 39.1818 37.3082 39.1818C37.009 39.1818 36.7628 39.2595 36.5696 39.4148C36.3764 39.5701 36.2334 39.7737 36.1406 40.0256C36.0478 40.2775 36.0014 40.5492 36.0014 40.8409C36.0014 41.1326 36.0478 41.4034 36.1406 41.6534C36.2334 41.9034 36.3764 42.1051 36.5696 42.2585C36.7628 42.4119 37.009 42.4886 37.3082 42.4886ZM41.1491 43L39.8196 38.6364H40.5241L41.4673 41.9773H41.5128L42.4446 38.6364H43.1605L44.081 41.9659H44.1264L45.0696 38.6364H45.7741L44.4446 43H43.7855L42.831 39.6477H42.7628L41.8082 43H41.1491ZM49.0014 37.1818H49.8423L51.8196 42.0114H51.8878L53.8651 37.1818H54.706V43H54.0469V38.5795H53.9901L52.1719 43H51.5355L49.7173 38.5795H49.6605V43H49.0014V37.1818ZM57.3118 43.1023C57.0353 43.1023 56.7843 43.0502 56.5589 42.946C56.3336 42.84 56.1546 42.6875 56.022 42.4886C55.8894 42.2879 55.8232 42.0455 55.8232 41.7614C55.8232 41.5114 55.8724 41.3087 55.9709 41.1534C56.0694 40.9962 56.201 40.8731 56.3658 40.7841C56.5305 40.6951 56.7124 40.6288 56.9112 40.5852C57.112 40.5398 57.3137 40.5038 57.5163 40.4773C57.7815 40.4432 57.9964 40.4176 58.1612 40.4006C58.3279 40.3816 58.4491 40.3504 58.5249 40.3068C58.6025 40.2633 58.6413 40.1875 58.6413 40.0795V40.0568C58.6413 39.7765 58.5646 39.5587 58.4112 39.4034C58.2597 39.2481 58.0296 39.1705 57.7209 39.1705C57.4008 39.1705 57.1499 39.2405 56.968 39.3807C56.7862 39.5208 56.6584 39.6705 56.5845 39.8295L55.9482 39.6023C56.0618 39.3371 56.2133 39.1307 56.4027 38.983C56.594 38.8333 56.8023 38.7292 57.0277 38.6705C57.255 38.6098 57.4785 38.5795 57.6982 38.5795C57.8383 38.5795 57.9993 38.5966 58.1811 38.6307C58.3648 38.6629 58.5419 38.7301 58.7124 38.8324C58.8847 38.9347 59.0277 39.089 59.1413 39.2955C59.255 39.5019 59.3118 39.7784 59.3118 40.125V43H58.6413V42.4091H58.6072C58.5618 42.5038 58.486 42.6051 58.38 42.7131C58.2739 42.821 58.1328 42.9129 57.9567 42.9886C57.7805 43.0644 57.5656 43.1023 57.3118 43.1023ZM57.4141 42.5C57.6792 42.5 57.9027 42.4479 58.0845 42.3438C58.2682 42.2396 58.4065 42.1051 58.4993 41.9403C58.594 41.7756 58.6413 41.6023 58.6413 41.4205V40.8068C58.6129 40.8409 58.5504 40.8722 58.4538 40.9006C58.3591 40.9271 58.2493 40.9508 58.1243 40.9716C58.0012 40.9905 57.8809 41.0076 57.7635 41.0227C57.648 41.036 57.5542 41.0473 57.4822 41.0568C57.308 41.0795 57.1451 41.1165 56.9936 41.1676C56.844 41.2169 56.7228 41.2917 56.63 41.392C56.5391 41.4905 56.4936 41.625 56.4936 41.7955C56.4936 42.0284 56.5798 42.2045 56.7521 42.3239C56.9264 42.4413 57.147 42.5 57.4141 42.5ZM60.8111 44.6364C60.6974 44.6364 60.5961 44.6269 60.5071 44.608C60.4181 44.5909 60.3565 44.5739 60.3224 44.5568L60.4929 43.9659C60.6558 44.0076 60.7997 44.0227 60.9247 44.0114C61.0497 44 61.1605 43.9441 61.2571 43.8438C61.3556 43.7453 61.4455 43.5852 61.527 43.3636L61.652 43.0227L60.0384 38.6364H60.7656L61.9702 42.1136H62.0156L63.2202 38.6364H63.9474L62.0952 43.6364C62.0118 43.8617 61.9086 44.0483 61.7855 44.196C61.6624 44.3456 61.5194 44.4564 61.3565 44.5284C61.1955 44.6004 61.0137 44.6364 60.8111 44.6364ZM67.8778 37.1818V43H67.1733V37.1818H67.8778ZM71.5405 43V37.1818H72.245V39.7727H75.3473V37.1818H76.0518V43H75.3473V40.3977H72.245V43H71.5405ZM79.201 43.0909C78.7805 43.0909 78.4179 42.9981 78.1129 42.8125C77.8099 42.625 77.576 42.3636 77.4112 42.0284C77.2483 41.6913 77.1669 41.2992 77.1669 40.8523C77.1669 40.4053 77.2483 40.0114 77.4112 39.6705C77.576 39.3277 77.8052 39.0606 78.0987 38.8693C78.3942 38.6761 78.7389 38.5795 79.1328 38.5795C79.3601 38.5795 79.5845 38.6174 79.8061 38.6932C80.0277 38.7689 80.2294 38.892 80.4112 39.0625C80.593 39.2311 80.7379 39.4545 80.8459 39.733C80.9538 40.0114 81.0078 40.3542 81.0078 40.7614V41.0455H77.6442V40.4659H80.326C80.326 40.2197 80.2768 40 80.1783 39.8068C80.0817 39.6136 79.9434 39.4612 79.7635 39.3494C79.5855 39.2377 79.3752 39.1818 79.1328 39.1818C78.8658 39.1818 78.6347 39.2481 78.4396 39.3807C78.2464 39.5114 78.0978 39.6818 77.9936 39.892C77.8894 40.1023 77.8374 40.3277 77.8374 40.5682V40.9545C77.8374 41.2841 77.8942 41.5634 78.0078 41.7926C78.1233 42.0199 78.2834 42.1932 78.4879 42.3125C78.6925 42.4299 78.9302 42.4886 79.201 42.4886C79.3771 42.4886 79.5362 42.464 79.6783 42.4148C79.8222 42.3636 79.9463 42.2879 80.0504 42.1875C80.1546 42.0852 80.2351 41.9583 80.2919 41.8068L80.9396 41.9886C80.8714 42.2083 80.7569 42.4015 80.5959 42.5682C80.4349 42.733 80.236 42.8617 79.9993 42.9545C79.7625 43.0455 79.4964 43.0909 79.201 43.0909ZM82.6982 37.1818V43H82.0277V37.1818H82.6982ZM83.9261 44.6364V38.6364H84.5739V39.3295H84.6534C84.7027 39.2538 84.7708 39.1572 84.858 39.0398C84.947 38.9205 85.0739 38.8144 85.2386 38.7216C85.4053 38.6269 85.6307 38.5795 85.9148 38.5795C86.2822 38.5795 86.6061 38.6714 86.8864 38.8551C87.1667 39.0388 87.3854 39.2992 87.5426 39.6364C87.6998 39.9735 87.7784 40.3712 87.7784 40.8295C87.7784 41.2917 87.6998 41.6922 87.5426 42.0312C87.3854 42.3684 87.1676 42.6297 86.8892 42.8153C86.6108 42.9991 86.2898 43.0909 85.9261 43.0909C85.6458 43.0909 85.4214 43.0445 85.2528 42.9517C85.0843 42.857 84.9545 42.75 84.8636 42.6307C84.7727 42.5095 84.7027 42.4091 84.6534 42.3295H84.5966V44.6364H83.9261ZM84.5852 40.8182C84.5852 41.1477 84.6335 41.4384 84.7301 41.6903C84.8267 41.9403 84.9678 42.1364 85.1534 42.2784C85.339 42.4186 85.5663 42.4886 85.8352 42.4886C86.1155 42.4886 86.3494 42.4148 86.5369 42.267C86.7263 42.1174 86.8684 41.9167 86.9631 41.6648C87.0597 41.411 87.108 41.1288 87.108 40.8182C87.108 40.5114 87.0606 40.2348 86.9659 39.9886C86.8731 39.7405 86.732 39.5445 86.5426 39.4006C86.3551 39.2547 86.1193 39.1818 85.8352 39.1818C85.5625 39.1818 85.3333 39.2509 85.1477 39.3892C84.9621 39.5256 84.822 39.7169 84.7273 39.9631C84.6326 40.2074 84.5852 40.4924 84.5852 40.8182ZM89.6761 41.3636V41.3295C89.6799 40.9678 89.7178 40.6799 89.7898 40.4659C89.8617 40.2519 89.964 40.0786 90.0966 39.946C90.2292 39.8134 90.3883 39.6913 90.5739 39.5795C90.6856 39.5114 90.786 39.4309 90.875 39.3381C90.964 39.2434 91.0341 39.1345 91.0852 39.0114C91.1383 38.8883 91.1648 38.7519 91.1648 38.6023C91.1648 38.4167 91.1212 38.2557 91.0341 38.1193C90.947 37.983 90.8305 37.8778 90.6847 37.804C90.5388 37.7301 90.3769 37.6932 90.1989 37.6932C90.0436 37.6932 89.8939 37.7254 89.75 37.7898C89.6061 37.8542 89.4858 37.9555 89.3892 38.0938C89.2926 38.232 89.2367 38.4129 89.2216 38.6364H88.5057C88.5208 38.3144 88.6042 38.0388 88.7557 37.8097C88.9091 37.5805 89.1108 37.4053 89.3608 37.2841C89.6127 37.1629 89.892 37.1023 90.1989 37.1023C90.5322 37.1023 90.822 37.1686 91.0682 37.3011C91.3163 37.4337 91.5076 37.6155 91.642 37.8466C91.7784 38.0777 91.8466 38.3409 91.8466 38.6364C91.8466 38.8447 91.8144 39.0331 91.75 39.2017C91.6875 39.3703 91.5966 39.5208 91.4773 39.6534C91.3598 39.786 91.2178 39.9034 91.0511 40.0057C90.8845 40.1098 90.7509 40.2197 90.6506 40.3352C90.5502 40.4489 90.4773 40.5843 90.4318 40.7415C90.3864 40.8987 90.3617 41.0947 90.358 41.3295V41.3636H89.6761ZM90.0398 43.0455C89.8996 43.0455 89.7794 42.9953 89.679 42.8949C89.5786 42.7945 89.5284 42.6742 89.5284 42.5341C89.5284 42.3939 89.5786 42.2737 89.679 42.1733C89.7794 42.0729 89.8996 42.0227 90.0398 42.0227C90.1799 42.0227 90.3002 42.0729 90.4006 42.1733C90.5009 42.2737 90.5511 42.3939 90.5511 42.5341C90.5511 42.6269 90.5275 42.7121 90.4801 42.7898C90.4347 42.8674 90.3731 42.9299 90.2955 42.9773C90.2197 43.0227 90.1345 43.0455 90.0398 43.0455Z" fill="white"/>
<circle cx="18" cy="41" r="9" fill="white"/>
<path d="M13 40.871C13 43.561 15.198 45.742 17.909 45.742C18.77 45.742 19.578 45.522 20.282 45.136L23 46L22.114 43.386C22.561 42.652 22.818 41.791 22.818 40.871C22.818 38.181 20.62 36 17.909 36C15.198 36 13 38.181 13 40.871ZM17.909 36.775C20.185 36.775 22.036 38.612 22.036 40.871C22.036 41.767 21.744 42.597 21.25 43.272L21.766 44.793L20.18 44.289C19.528 44.717 18.747 44.967 17.909 44.967C15.633 44.967 13.782 43.13 13.782 40.872C13.782 38.614 15.633 36.775 17.909 36.775ZM15.43 41.993C15.46 41.943 15.541 41.913 15.661 41.854C15.781 41.794 16.373 41.505 16.483 41.466C16.594 41.426 16.674 41.406 16.754 41.526C16.834 41.646 17.065 41.914 17.135 41.994C17.205 42.074 17.275 42.084 17.396 42.024C17.516 41.964 17.904 41.838 18.364 41.431C18.722 41.114 18.963 40.724 19.033 40.604C19.103 40.484 19.04 40.419 18.98 40.36C18.926 40.306 18.86 40.221 18.799 40.151C18.738 40.081 18.719 40.031 18.679 39.952C18.639 39.873 18.659 39.803 18.689 39.743C18.719 39.683 18.96 39.096 19.06 38.857C19.16 38.618 19.26 38.658 19.331 38.658C19.401 38.658 19.481 38.648 19.562 38.648C19.642 38.648 19.773 38.678 19.883 38.797C19.993 38.916 20.304 39.206 20.304 39.793C20.304 40.381 19.873 40.948 19.813 41.028C19.753 41.108 18.981 42.352 17.757 42.83C16.533 43.308 16.533 43.148 16.313 43.129C16.093 43.109 15.601 42.84 15.501 42.561C15.401 42.282 15.401 42.043 15.43 41.993Z" fill="#58707F"/>
<path d="M13 40.871C13 43.561 15.198 45.742 17.909 45.742C18.77 45.742 19.578 45.522 20.282 45.136L23 46L22.114 43.386C22.561 42.652 22.818 41.791 22.818 40.871C22.818 38.181 20.62 36 17.909 36C15.198 36 13 38.181 13 40.871ZM17.909 36.775C20.185 36.775 22.036 38.612 22.036 40.871C22.036 41.767 21.744 42.597 21.25 43.272L21.766 44.793L20.18 44.289C19.528 44.717 18.747 44.967 17.909 44.967C15.633 44.967 13.782 43.13 13.782 40.872C13.782 38.614 15.633 36.775 17.909 36.775ZM15.43 41.993C15.46 41.943 15.541 41.913 15.661 41.854C15.781 41.794 16.373 41.505 16.483 41.466C16.594 41.426 16.674 41.406 16.754 41.526C16.834 41.646 17.065 41.914 17.135 41.994C17.205 42.074 17.275 42.084 17.396 42.024C17.516 41.964 17.904 41.838 18.364 41.431C18.722 41.114 18.963 40.724 19.033 40.604C19.103 40.484 19.04 40.419 18.98 40.36C18.926 40.306 18.86 40.221 18.799 40.151C18.738 40.081 18.719 40.031 18.679 39.952C18.639 39.873 18.659 39.803 18.689 39.743C18.719 39.683 18.96 39.096 19.06 38.857C19.16 38.618 19.26 38.658 19.331 38.658C19.401 38.658 19.481 38.648 19.562 38.648C19.642 38.648 19.773 38.678 19.883 38.797C19.993 38.916 20.304 39.206 20.304 39.793C20.304 40.381 19.873 40.948 19.813 41.028C19.753 41.108 18.981 42.352 17.757 42.83C16.533 43.308 16.533 43.148 16.313 43.129C16.093 43.109 15.601 42.84 15.501 42.561C15.401 42.282 15.401 42.043 15.43 41.993Z" fill="#58707F"/>
</svg>
