<svg width="100" height="80" viewBox="0 0 100 80" fill="none" xmlns="http://www.w3.org/2000/svg">
<path d="M11 21H88V72C88 73.1046 87.1046 74 86 74H13C11.8954 74 11 73.1046 11 72V21Z" fill="#F1F1F1"/>
<rect x="14" y="59" width="71" height="12" rx="6" fill="#58707F"/>
<circle cx="29" cy="65" r="4" fill="white"/>
<path d="M26.7778 64.9427C26.7778 66.1382 27.7547 67.1076 28.9596 67.1076C29.3423 67.1076 29.7014 67.0098 30.0143 66.8382L31.2223 67.2222L30.8285 66.0605C31.0272 65.7342 31.1414 65.3516 31.1414 64.9427C31.1414 63.7471 30.1645 62.7778 28.9596 62.7778C27.7547 62.7778 26.7778 63.7471 26.7778 64.9427ZM28.9596 63.1222C29.9712 63.1222 30.7938 63.9387 30.7938 64.9427C30.7938 65.3409 30.6641 65.7098 30.4445 66.0098L30.6738 66.6858L29.969 66.4618C29.6792 66.652 29.3321 66.7631 28.9596 66.7631C27.9481 66.7631 27.1254 65.9467 27.1254 64.9431C27.1254 63.9396 27.9481 63.1222 28.9596 63.1222ZM27.8578 65.4414C27.8712 65.4191 27.9072 65.4058 27.9605 65.3796C28.0138 65.3529 28.277 65.2245 28.3258 65.2071C28.3752 65.1894 28.4107 65.1805 28.4463 65.2338C28.4818 65.2871 28.5845 65.4062 28.6156 65.4418C28.6467 65.4774 28.6778 65.4818 28.7316 65.4551C28.785 65.4285 28.9574 65.3725 29.1618 65.1916C29.321 65.0507 29.4281 64.8774 29.4592 64.824C29.4903 64.7707 29.4623 64.7418 29.4356 64.7156C29.4116 64.6916 29.3823 64.6538 29.3552 64.6227C29.3281 64.5916 29.3196 64.5694 29.3018 64.5342C29.2841 64.4991 29.293 64.468 29.3063 64.4414C29.3196 64.4147 29.4267 64.1538 29.4712 64.0476C29.5156 63.9414 29.5601 63.9591 29.5916 63.9591C29.6227 63.9591 29.6583 63.9547 29.6943 63.9547C29.7298 63.9547 29.7881 63.968 29.837 64.0209C29.8858 64.0738 30.0241 64.2027 30.0241 64.4636C30.0241 64.7249 29.8325 64.9769 29.8058 65.0125C29.7792 65.048 29.4361 65.6009 28.8921 65.8134C28.3481 66.0258 28.3481 65.9547 28.2503 65.9462C28.1525 65.9374 27.9338 65.8178 27.8894 65.6938C27.845 65.5698 27.845 65.4636 27.8578 65.4414Z" fill="#58707F"/>
<path d="M26.7778 64.9427C26.7778 66.1382 27.7547 67.1076 28.9596 67.1076C29.3423 67.1076 29.7014 67.0098 30.0143 66.8382L31.2223 67.2222L30.8285 66.0605C31.0272 65.7342 31.1414 65.3516 31.1414 64.9427C31.1414 63.7471 30.1645 62.7778 28.9596 62.7778C27.7547 62.7778 26.7778 63.7471 26.7778 64.9427ZM28.9596 63.1222C29.9712 63.1222 30.7938 63.9387 30.7938 64.9427C30.7938 65.3409 30.6641 65.7098 30.4445 66.0098L30.6738 66.6858L29.969 66.4618C29.6792 66.652 29.3321 66.7631 28.9596 66.7631C27.9481 66.7631 27.1254 65.9467 27.1254 64.9431C27.1254 63.9396 27.9481 63.1222 28.9596 63.1222ZM27.8578 65.4414C27.8712 65.4191 27.9072 65.4058 27.9605 65.3796C28.0138 65.3529 28.277 65.2245 28.3258 65.2071C28.3752 65.1894 28.4107 65.1805 28.4463 65.2338C28.4818 65.2871 28.5845 65.4062 28.6156 65.4418C28.6467 65.4774 28.6778 65.4818 28.7316 65.4551C28.785 65.4285 28.9574 65.3725 29.1618 65.1916C29.321 65.0507 29.4281 64.8774 29.4592 64.824C29.4903 64.7707 29.4623 64.7418 29.4356 64.7156C29.4116 64.6916 29.3823 64.6538 29.3552 64.6227C29.3281 64.5916 29.3196 64.5694 29.3018 64.5342C29.2841 64.4991 29.293 64.468 29.3063 64.4414C29.3196 64.4147 29.4267 64.1538 29.4712 64.0476C29.5156 63.9414 29.5601 63.9591 29.5916 63.9591C29.6227 63.9591 29.6583 63.9547 29.6943 63.9547C29.7298 63.9547 29.7881 63.968 29.837 64.0209C29.8858 64.0738 30.0241 64.2027 30.0241 64.4636C30.0241 64.7249 29.8325 64.9769 29.8058 65.0125C29.7792 65.048 29.4361 65.6009 28.8921 65.8134C28.3481 66.0258 28.3481 65.9547 28.2503 65.9462C28.1525 65.9374 27.9338 65.8178 27.8894 65.6938C27.845 65.5698 27.845 65.4636 27.8578 65.4414Z" fill="#58707F"/>
<rect x="35" y="63" width="41" height="4" fill="white"/>
<rect x="14" y="40" width="71" height="16" rx="1" fill="white"/>
<rect x="14" y="28" width="71" height="9" rx="1" fill="white"/>
<path d="M11 10C11 8.89543 11.8954 8 13 8H86C87.1046 8 88 8.89543 88 10V24H11V10Z" fill="#58707F"/>
<circle cx="19.4222" cy="16.4725" r="5" fill="white"/>
<g clip-path="url(#clip0_1504_13)" filter="url(#filter0_d_1504_13)">
<path d="M21.4485 17.7206C21.1989 17.5538 20.9175 17.4542 20.6469 17.3306L20.4975 17.2658C20.2455 17.1488 20.1519 16.9166 20.2623 16.658C20.3325 16.4942 20.3913 16.328 20.4213 16.1522C20.4273 16.1174 20.4345 16.088 20.4849 16.0922C20.5767 16.1 20.6277 16.043 20.6535 15.9632C20.7003 15.8192 20.7453 15.674 20.7879 15.5288C20.8041 15.4736 20.8059 15.4154 20.7939 15.3584C20.7825 15.3008 20.7531 15.2492 20.6925 15.2456C20.6241 15.2414 20.6133 15.2102 20.6187 15.1538C20.6277 15.0572 20.6301 14.9594 20.6433 14.8634C20.7339 14.1962 20.2791 13.5896 19.6131 13.4906C19.5939 13.4876 19.5759 13.4786 19.5573 13.472H19.2993C19.2639 13.5038 19.2177 13.4924 19.1763 13.502C18.5295 13.6514 18.1353 14.228 18.2241 14.8964C18.2367 14.99 18.2493 15.0836 18.2451 15.1784C18.2433 15.2132 18.2373 15.2372 18.1941 15.242C18.0987 15.2528 18.0693 15.3212 18.0651 15.4058C18.0591 15.5234 18.1131 15.6278 18.1419 15.7382C18.1575 15.7988 18.1827 15.857 18.1989 15.9176C18.2265 16.0202 18.2727 16.0988 18.3951 16.0934C18.4305 16.0916 18.4365 16.115 18.4413 16.1426C18.4761 16.3286 18.5337 16.5074 18.6117 16.6802C18.6765 16.8236 18.6489 16.9652 18.5847 17.1026C18.5463 17.1854 18.4689 17.2178 18.3939 17.2532C18.1371 17.3726 17.8713 17.4704 17.6199 17.6012C17.5389 17.6432 17.4603 17.6912 17.3859 17.744C17.2659 17.8286 17.1771 17.939 17.1357 18.0824C17.0541 18.3632 17.0211 18.6488 17.0787 18.9386C17.1171 19.1324 17.2341 19.259 17.4237 19.3166C17.6139 19.3742 17.8095 19.3982 18.0057 19.418C18.2709 19.4438 18.5367 19.4528 18.8025 19.4612C18.8307 19.4618 18.8583 19.469 18.8865 19.4732H19.9521C20.1747 19.4612 20.3979 19.4498 20.6205 19.4366C20.8749 19.4216 21.1281 19.3958 21.3765 19.3364C21.6447 19.2716 21.7707 19.124 21.7905 18.851C21.8091 18.5888 21.7803 18.3308 21.7137 18.077C21.6735 17.9216 21.5799 17.8088 21.4485 17.7206Z" fill="#58707F"/>
</g>
<rect x="26" y="13" width="59" height="6" fill="white"/>
<defs>
<filter id="filter0_d_1504_13" x="12.4222" y="13.4725" width="14" height="14" filterUnits="userSpaceOnUse" color-interpolation-filters="sRGB">
<feFlood flood-opacity="0" result="BackgroundImageFix"/>
<feColorMatrix in="SourceAlpha" type="matrix" values="0 0 0 0 0 0 0 0 0 0 0 0 0 0 0 0 0 0 127 0" result="hardAlpha"/>
<feOffset dy="4"/>
<feGaussianBlur stdDeviation="2"/>
<feComposite in2="hardAlpha" operator="out"/>
<feColorMatrix type="matrix" values="0 0 0 0 0 0 0 0 0 0 0 0 0 0 0 0 0 0 0.25 0"/>
<feBlend mode="normal" in2="BackgroundImageFix" result="effect1_dropShadow_1504_13"/>
<feBlend mode="normal" in="SourceGraphic" in2="effect1_dropShadow_1504_13" result="shape"/>
</filter>
<clipPath id="clip0_1504_13">
<rect width="6" height="6" fill="white" transform="translate(16.4222 13.4725)"/>
</clipPath>
</defs>
</svg>
