<svg width="16" height="16" viewBox="0 0 16 16" fill="none" xmlns="http://www.w3.org/2000/svg">
<g clip-path="url(#clip0_2660_3273)">
<path d="M7.9999 0.399902C3.7999 0.399902 0.399902 3.7999 0.399902 7.9999C0.399902 12.1999 3.7999 15.5999 7.9999 15.5999C12.1999 15.5999 15.5999 12.1999 15.5999 7.9999C15.5999 3.7999 12.1999 0.399902 7.9999 0.399902ZM7.9999 14.0999C4.5999 14.0999 1.8999 11.3999 1.8999 7.9999C1.8999 4.5999 4.5999 1.8999 7.9999 1.8999C11.3999 1.8999 14.0999 4.5999 14.0999 7.9999C14.0999 11.3999 11.3999 14.0999 7.9999 14.0999Z" fill="#aaa"/>
<path d="M11.1001 7.10002L6.6001 4.50002C5.9001 4.10002 5.1001 4.50002 5.1001 5.40002V10.6C5.1001 11.4 5.9001 11.8 6.6001 11.5L11.1001 8.90002C11.8001 8.50002 11.8001 7.60002 11.1001 7.20002V7.10002ZM6.6001 9.70002V6.20002L9.6001 7.90002L6.6001 9.60002V9.70002Z" fill="#aaa"/>
</g>
<defs>
<clipPath id="clip0_2660_3273">
<rect width="16" height="16" fill="white"/>
</clipPath>
</defs>
</svg>
