<?xml version="1.0" encoding="UTF-8"?>
<svg width="20px" height="20px" viewBox="0 0 20 20" version="1.1" xmlns="http://www.w3.org/2000/svg" xmlns:xlink="http://www.w3.org/1999/xlink">
    <!-- Generator: Sketch 52.6 (67491) - http://www.bohemiancoding.com/sketch -->
    <title>block-icon</title>
    <desc>Created with Sketch.</desc>
    <defs>
        <path d="M9.51109751,0.011566223 C15.3635105,-0.264899434 20.1768532,4.45142291 19.9950111,10.2362994 C19.825369,15.6329759 15.2871281,19.9196764 9.8444506,19.837215 C8.30219228,19.8138733 6.84494791,19.4436102 5.54755679,18.8025734 L0.4976891,19.989319 C0.220754805,20.0543697 -0.0306704799,19.812247 0.0267609575,19.5357335 L1.0884469,14.4238453 C0.396955034,13.0806431 0.00496497962,11.5604646 4.64182289e-05,9.94988477 C-0.0161076805,4.66192903 4.18607971,0.263063874 9.51109751,0.011566223 Z M15.5366728,15.4111338 C17.0023558,13.9573453 17.8300726,11.9751153 17.8301208,9.9190335 C17.8300726,7.84448878 17.0156167,5.89411446 15.536721,4.42717237 C14.0578253,2.96027813 12.0916063,2.1524053 10.0001568,2.15235747 C7.92736897,2.15235747 5.92898641,2.97338394 4.46330333,4.42722021 C2.98440765,5.89421012 2.16995175,7.84458445 2.16995175,9.91917699 C2.16995175,11.161694 2.45628918,12.3479613 3.02100754,13.4449751 L3.36747679,14.1179633 L2.7157674,17.2560398 L5.81185713,16.5284281 L6.51511497,16.8759234 C7.6029368,17.4134052 8.77538682,17.6859487 10.0000122,17.6859487 C12.0914616,17.6859487 14.0577771,16.8780759 15.5366728,15.4111338 Z M14.8531856,12.0702998 C15.3171699,12.2024581 15.5213384,12.7394137 15.2627764,13.1437327 C14.8835167,13.7367468 14.2825843,14.4610103 13.530623,14.6416696 C12.2048779,14.9602269 10.1686899,14.649227 7.62598653,12.2952032 C5.42502675,10.2575844 4.84299698,8.56062093 4.9804756,7.21445321 C5.05844926,6.45092011 5.69988753,5.76171706 6.24049529,5.30817946 C6.60904985,4.9989971 7.17318955,5.12646786 7.36838893,5.56436459 L8.18332704,7.39262528 C8.29047453,7.63297821 8.2562857,7.91221809 8.09426251,8.12014131 L7.68071758,8.650831 C7.50634976,8.87463426 7.48286604,9.18128155 7.62487744,9.42656111 C8.11711935,10.2768604 10.0446168,11.9767894 10.9609158,12.3446131 C11.2252644,12.4507032 11.5283346,12.3858438 11.7280667,12.1839951 L12.2017435,11.7052982 C12.3872986,11.5177512 12.6615325,11.4460997 12.9161886,11.5186121 L14.8531856,12.0702998 Z" id="path-1"></path>
    </defs>
    <g id="block-icon" stroke="none" stroke-width="1" fill="none" fill-rule="evenodd">
        <mask id="mask-2" fill="white">
            <use xlink:href="#path-1"></use>
        </mask>
        <use id="Shape" fill="#555D66" fill-rule="nonzero" xlink:href="#path-1"></use>
    </g>
</svg>