<?xml version="1.0" encoding="UTF-8"?>
<svg width="18px" height="18px" viewBox="0 0 18 18" version="1.1" xmlns="http://www.w3.org/2000/svg" xmlns:xlink="http://www.w3.org/1999/xlink">
    <!-- Generator: Sketch 52.6 (67491) - http://www.bohemiancoding.com/sketch -->
    <title>menu-icon</title>
    <desc>Created with Sketch.</desc>
    <defs>
        <path d="M8.55998776,0.0104096007 C13.8271594,-0.23840949 18.1591679,4.00628062 17.99551,9.21266943 C17.8428321,14.0696784 13.7584153,17.9277088 8.86000554,17.8534935 C7.47197305,17.832486 6.16045312,17.4992492 4.99280111,16.922316 L0.44792019,17.9903871 C0.198679325,18.0489327 -0.0276034319,17.8310223 0.0240848618,17.5821602 L0.97960221,12.9814607 C0.357259531,11.7725788 0.00446848166,10.4044182 4.1776406e-05,8.95489629 C-0.0144969124,4.19573612 3.76747174,0.236757487 8.55998776,0.0104096007 Z M13.9830055,13.8700204 C15.3021203,12.5616108 16.0470653,10.7776038 16.0471087,8.92713015 C16.0470653,7.0600399 15.314055,5.30470301 13.9830489,3.98445514 C12.6520428,2.66425031 10.8824457,1.93716477 9.00014114,1.93712172 C7.13463207,1.93712172 5.33608777,2.67604554 4.016973,3.98449819 C2.68596689,5.30478911 1.95295658,7.060126 1.95295658,8.92725929 C1.95295658,10.0455246 2.21066026,11.1131651 2.71890678,12.1004776 L3.03072911,12.706167 L2.44419066,15.5304358 L5.23067142,14.8755853 L5.86360347,15.1883311 C6.84264312,15.6720647 7.89784813,15.9173538 9.00001094,15.9173538 C10.8823155,15.9173538 12.6519994,15.1902683 13.9830055,13.8700204 Z M13.3678671,10.8632698 C13.7854529,10.9822123 13.9692046,11.4654723 13.7364988,11.8293595 C13.3951651,12.3630721 12.8543258,13.0149093 12.1775607,13.1775026 C10.9843901,13.4642042 9.15182089,13.1843043 6.86338788,11.0656829 C4.88252407,9.23182592 4.35869728,7.70455884 4.48242804,6.49300789 C4.55260433,5.8058281 5.12989878,5.18554536 5.61644576,4.77736151 C5.94814486,4.49909739 6.4558706,4.61382107 6.63155004,5.00792813 L7.36499434,6.65336275 C7.46142707,6.86968039 7.43065713,7.12099628 7.28483625,7.30812717 L6.91264582,7.7857479 C6.75571478,7.98717083 6.73457943,8.26315339 6.8623897,8.483905 C7.30540741,9.24917437 9.04015508,10.7791104 9.86482423,11.1101518 C10.1027379,11.2056329 10.3755011,11.1472594 10.5552601,10.9655956 L10.9815691,10.5347684 C11.1485688,10.365976 11.3953793,10.3014897 11.6245698,10.3667509 L13.3678671,10.8632698 Z" id="path-1"></path>
    </defs>
    <g id="menu-icon" stroke="none" stroke-width="1" fill="none" fill-rule="evenodd">
        <mask id="mask-2" fill="white">
            <use xlink:href="#path-1"></use>
        </mask>
        <use id="Shape" fill="#FFFFFF" fill-rule="nonzero" xlink:href="#path-1"></use>
    </g>
</svg>