<svg width="241" height="45" viewBox="0 0 241 45" fill="none" xmlns="http://www.w3.org/2000/svg">
<path d="M43.8877 33.0306C43.8913 32.781 43.7969 32.5399 43.6251 32.3597C43.4532 32.1795 43.2177 32.0745 42.9695 32.0676H35.0423C34.9171 32.0667 34.793 32.0908 34.6772 32.1386C34.5614 32.1863 34.4562 32.2567 34.3677 32.3457C34.2792 32.4347 34.2092 32.5405 34.1617 32.6569C34.1142 32.7734 34.0902 32.8981 34.091 33.024V33.9804C34.0893 34.23 34.1853 34.4703 34.3584 34.6493C34.5314 34.8283 34.7676 34.9316 35.0159 34.9368H39.0719L31.8054 42.2427C31.6311 42.4194 31.5333 42.6581 31.5333 42.9069C31.5333 43.1557 31.6311 43.3945 31.8054 43.5711L32.466 44.2353C32.5606 44.3302 32.6729 44.4055 32.7964 44.4568C32.92 44.508 33.0524 44.5343 33.186 44.5342C33.301 44.5353 33.415 44.5136 33.5216 44.4703C33.6281 44.427 33.7251 44.3629 33.807 44.2818L41.0735 36.9758V40.9609C41.0727 41.0862 41.0965 41.2104 41.1436 41.3264C41.1906 41.4424 41.2601 41.5479 41.3479 41.6368C41.4357 41.7257 41.5401 41.7962 41.6552 41.8444C41.7702 41.8925 41.8936 41.9173 42.0182 41.9173H43.0289C43.1535 41.9208 43.2776 41.8995 43.394 41.8546C43.5104 41.8097 43.6168 41.7421 43.707 41.6557C43.7973 41.5692 43.8697 41.4657 43.9199 41.351C43.9702 41.2363 43.9974 41.1128 44 40.9875L43.8877 33.0306Z" fill="#0B21BE"/>
<path d="M1.24322 10.7054H32.7253C32.8859 10.7067 33.0453 10.6764 33.1942 10.6161C33.3431 10.5558 33.4787 10.4668 33.5932 10.3541C33.7078 10.2414 33.799 10.1073 33.8616 9.95936C33.9243 9.81143 33.9572 9.6526 33.9585 9.49194V8.2587C33.9305 7.29012 33.5286 6.36999 32.837 5.69127C32.1454 5.01256 31.2179 4.62798 30.2489 4.61819H27.23V3.32576C27.23 2.68992 26.9774 2.08013 26.5278 1.63053C26.0782 1.18093 25.4684 0.928345 24.8326 0.928345C24.1967 0.928345 23.5869 1.18093 23.1373 1.63053C22.6877 2.08013 22.4352 2.68992 22.4352 3.32576V4.58859H11.5235V3.32576C11.4843 2.71522 11.2142 2.1425 10.768 1.72397C10.3218 1.30544 9.73292 1.07251 9.12114 1.07251C8.50935 1.07251 7.92052 1.30544 7.47429 1.72397C7.02807 2.1425 6.75794 2.71522 6.71879 3.32576V4.58859H3.64064C3.16006 4.58858 2.68423 4.68371 2.2406 4.86851C1.79697 5.05331 1.39432 5.32412 1.05588 5.66532C0.717438 6.00651 0.4499 6.41134 0.268697 6.85645C0.0874937 7.30156 -0.00378683 7.77814 0.000120328 8.2587V9.52154C0.00141072 9.68219 0.0343334 9.84102 0.0970087 9.98896C0.159684 10.1369 0.250884 10.271 0.365402 10.3837C0.47992 10.4964 0.615512 10.5854 0.764436 10.6457C0.91336 10.706 1.0727 10.7363 1.23336 10.735L1.24322 10.7054Z" fill="#0B21BE"/>
<path d="M33.8796 23.1858V15.5003C33.8823 15.1766 33.7576 14.8648 33.5324 14.6322C33.3072 14.3996 32.9996 14.2649 32.676 14.2572H1.24322C1.08256 14.2546 0.922962 14.2836 0.773535 14.3427C0.624108 14.4018 0.487783 14.4897 0.372346 14.6015C0.256909 14.7133 0.164621 14.8467 0.100754 14.9941C0.0368876 15.1416 0.00269248 15.3002 0.00012207 15.4608V33.6733C0.00012207 34.6388 0.383675 35.5648 1.0664 36.2475C1.74913 36.9302 2.67511 37.3138 3.64064 37.3138H21.8925C22.2592 34.0338 23.5955 30.9377 25.7307 28.4211C27.866 25.9045 30.7031 24.0817 33.8796 23.1858ZM23.0271 20.374C23.0219 20.2134 23.0483 20.0532 23.105 19.9028C23.1616 19.7523 23.2474 19.6145 23.3573 19.4972C23.4673 19.38 23.5993 19.2855 23.7458 19.2193C23.8922 19.153 24.0503 19.1163 24.211 19.1112H26.6084C26.7691 19.1086 26.9287 19.1377 27.0781 19.1967C27.2276 19.2558 27.3639 19.3437 27.4793 19.4555C27.5948 19.5673 27.687 19.7007 27.7509 19.8482C27.8148 19.9956 27.849 20.1542 27.8515 20.3148V22.7517C27.8609 22.9124 27.8384 23.0734 27.7854 23.2254C27.7324 23.3774 27.6499 23.5175 27.5427 23.6375C27.4354 23.7576 27.3055 23.8553 27.1605 23.9251C27.0154 23.9949 26.858 24.0353 26.6972 24.0441H24.211C23.8873 24.0442 23.5766 23.917 23.3459 23.6899C23.1152 23.4629 22.983 23.1543 22.9778 22.8306L23.0271 20.374ZM10.9611 31.2265C10.9612 31.3875 10.9291 31.547 10.8669 31.6955C10.8047 31.844 10.7135 31.9787 10.5988 32.0916C10.484 32.2046 10.3479 32.2936 10.1983 32.3534C10.0488 32.4132 9.88891 32.4426 9.72789 32.44H7.27129C7.11063 32.4413 6.95129 32.411 6.80237 32.3507C6.65344 32.2904 6.51785 32.2014 6.40333 32.0887C6.28881 31.976 6.19761 31.8419 6.13494 31.6939C6.07226 31.546 6.03934 31.3872 6.03805 31.2265V28.7995C6.03801 28.4758 6.16523 28.1651 6.39225 27.9344C6.61928 27.7037 6.92791 27.5714 7.25155 27.5663H9.67856C10.0023 27.5636 10.3141 27.6883 10.5466 27.9135C10.7792 28.1387 10.9139 28.4463 10.9217 28.7699L10.9611 31.2265ZM10.9611 22.801C10.9637 22.9617 10.9347 23.1213 10.8756 23.2707C10.8165 23.4202 10.7286 23.5565 10.6168 23.6719C10.505 23.7874 10.3716 23.8796 10.2242 23.9435C10.0767 24.0074 9.91815 24.0416 9.75749 24.0441H7.27129C6.9476 24.0442 6.63688 23.917 6.40616 23.6899C6.17544 23.4629 6.04323 23.1543 6.03805 22.8306V20.374C6.03278 20.2134 6.05924 20.0532 6.1159 19.9028C6.17256 19.7523 6.25832 19.6145 6.36827 19.4972C6.47822 19.38 6.61021 19.2855 6.75669 19.2193C6.90317 19.153 7.06127 19.1163 7.22196 19.1112H9.67856C9.83922 19.1086 9.99883 19.1377 10.1483 19.1967C10.2977 19.2558 10.434 19.3437 10.5494 19.4555C10.6649 19.5673 10.7572 19.7007 10.821 19.8482C10.8849 19.9956 10.9191 20.1542 10.9217 20.3148L10.9611 22.801ZM19.3866 31.2265C19.3893 31.5502 19.2646 31.862 19.0394 32.0946C18.8142 32.3272 18.5066 32.4619 18.183 32.4696H15.7066C15.546 32.4722 15.3864 32.4432 15.2369 32.3841C15.0875 32.325 14.9512 32.2371 14.8357 32.1253C14.7203 32.0135 14.628 31.8801 14.5642 31.7327C14.5003 31.5852 14.4661 31.4266 14.4635 31.266V28.7995C14.4622 28.6388 14.4926 28.4795 14.5529 28.3306C14.6131 28.1817 14.7022 28.0461 14.8149 27.9316C14.9275 27.817 15.0617 27.7258 15.2096 27.6632C15.3575 27.6005 15.5164 27.5676 15.677 27.5663H18.104C18.4277 27.5662 18.7384 27.6934 18.9692 27.9205C19.1999 28.1475 19.3321 28.4561 19.3373 28.7798L19.3866 31.2265ZM18.104 24.0441H15.7066C15.3829 24.0468 15.0711 23.9221 14.8386 23.6969C14.606 23.4717 14.4713 23.1641 14.4635 22.8405V20.374C14.4583 20.2134 14.4847 20.0532 14.5414 19.9028C14.598 19.7523 14.6838 19.6145 14.7937 19.4972C14.9037 19.38 15.0357 19.2855 15.1822 19.2193C15.3286 19.153 15.4867 19.1163 15.6474 19.1112H18.104C18.2647 19.1099 18.424 19.1403 18.573 19.2005C18.7219 19.2608 18.8575 19.3498 18.972 19.4625C19.0865 19.5752 19.1777 19.7094 19.2404 19.8573C19.3031 20.0052 19.336 20.164 19.3373 20.3247V22.7517C19.3466 22.9124 19.3241 23.0734 19.2711 23.2254C19.2181 23.3774 19.1356 23.5175 19.0284 23.6375C18.9212 23.7576 18.7913 23.8553 18.6462 23.9251C18.5011 23.9949 18.3437 24.0353 18.183 24.0441H18.104Z" fill="#0B21BE"/>
<path d="M58.36 13.6V20.6H67.76V25.04H58.36V32.44H68.96V37H52.76V9.04H68.96V13.6H58.36ZM99.1291 9.08L88.8891 37H82.0891L71.8491 9.08H77.8491L85.5291 31.28L93.1691 9.08H99.1291ZM108.087 13.6V20.6H117.487V25.04H108.087V32.44H118.687V37H102.487V9.04H118.687V13.6H108.087ZM147.656 37H142.056L129.376 17.84V37H123.776V9.04H129.376L142.056 28.24V9.04H147.656V37ZM172.19 9.08V13.6H164.75V37H159.15V13.6H151.71V9.08H172.19ZM193.516 9.08V13.6H181.876V20.76H190.796V25.2H181.876V37H176.276V9.08H193.516ZM203.007 9.08V26.36C203.007 28.2533 203.5 29.7067 204.487 30.72C205.473 31.7067 206.86 32.2 208.647 32.2C210.46 32.2 211.86 31.7067 212.847 30.72C213.833 29.7067 214.327 28.2533 214.327 26.36V9.08H219.967V26.32C219.967 28.6933 219.447 30.7067 218.407 32.36C217.393 33.9867 216.02 35.2133 214.287 36.04C212.58 36.8667 210.673 37.28 208.567 37.28C206.487 37.28 204.593 36.8667 202.887 36.04C201.207 35.2133 199.873 33.9867 198.887 32.36C197.9 30.7067 197.407 28.6933 197.407 26.32V9.08H203.007ZM230.977 32.56H240.177V37H225.377V9.08H230.977V32.56Z" fill="#0B21BE"/>
</svg>
