<?xml version="1.0" encoding="iso-8859-1"?>
<!-- Uploaded to: SVG Repo, www.svgrepo.com, Generator: SVG Repo Mixer Tools -->
<svg height="800px" width="800px" version="1.1" id="Layer_1" xmlns="http://www.w3.org/2000/svg" xmlns:xlink="http://www.w3.org/1999/xlink" 
	 viewBox="0 0 512 512" xml:space="preserve">
<path style="fill:#F95428;" d="M328.911,262.272c0-10.57,7.598-22.58,3.787-31.771c-3.951-9.528-17.962-12.605-25.142-19.785
	s-10.257-21.191-19.785-25.142c-9.191-3.811-21.201,3.787-31.771,3.787s-22.58-7.598-31.771-3.787
	c-9.528,3.951-12.605,17.962-19.785,25.142s-21.191,10.257-25.142,19.785c-3.811,9.191,3.787,21.201,3.787,31.771
	c0,10.57-7.598,22.58-3.787,31.771c3.951,9.528,17.962,12.605,25.142,19.785c7.18,7.18,10.257,21.191,19.785,25.142
	c9.191,3.811,21.201-3.787,31.771-3.787s22.58,7.598,31.771,3.787c9.528-3.951,12.605-17.962,19.785-25.142
	c7.18-7.18,21.191-10.257,25.142-19.785C336.51,284.852,328.911,272.841,328.911,262.272z"/>
<g>
	<path style="fill:#E54728;" d="M500.323,273.948H389.984c-6.448,0-11.677-5.228-11.677-11.677c0-6.449,5.229-11.677,11.677-11.677
		h110.339c6.448,0,11.677,5.228,11.677,11.677C512,268.721,506.771,273.948,500.323,273.948z"/>
	<path style="fill:#E54728;" d="M432.018,230.163h-57.796c-6.448,0-11.677-5.228-11.677-11.677s5.229-11.677,11.677-11.677h57.796
		c6.448,0,11.677,5.228,11.677,11.677S438.466,230.163,432.018,230.163z"/>
	<path style="fill:#E54728;" d="M432.018,317.734h-57.796c-6.448,0-11.677-5.228-11.677-11.677s5.229-11.677,11.677-11.677h57.796
		c6.448,0,11.677,5.228,11.677,11.677S438.466,317.734,432.018,317.734z"/>
	<path style="fill:#E54728;" d="M122.016,273.948H11.677C5.228,273.948,0,268.721,0,262.272c0-6.449,5.228-11.677,11.677-11.677
		h110.339c6.449,0,11.677,5.228,11.677,11.677C133.693,268.721,128.465,273.948,122.016,273.948z"/>
	<path style="fill:#E54728;" d="M137.78,230.163H79.982c-6.449,0-11.677-5.228-11.677-11.677s5.228-11.677,11.677-11.677h57.797
		c6.449,0,11.677,5.228,11.677,11.677S144.229,230.163,137.78,230.163z"/>
	<path style="fill:#E54728;" d="M137.78,317.734H79.982c-6.449,0-11.677-5.228-11.677-11.677s5.228-11.677,11.677-11.677h57.797
		c6.449,0,11.677,5.228,11.677,11.677S144.229,317.734,137.78,317.734z"/>
</g>
<g>
	<path style="fill:#333333;" d="M285.977,232.295c-4.561-4.559-11.952-4.559-16.514,0l-43.44,43.44c-4.56,4.56-4.56,11.953,0,16.514
		c2.28,2.28,5.269,3.42,8.257,3.42s5.977-1.14,8.257-3.42l43.44-43.44C290.537,244.25,290.537,236.856,285.977,232.295z"/>
	<path style="fill:#333333;" d="M343.485,298.516c3.809-9.185,1.226-18.572-0.85-26.115c-1.052-3.825-2.047-7.439-2.047-10.13
		c0-2.69,0.995-6.304,2.047-10.13c2.075-7.542,4.658-16.93,0.85-26.114c-3.933-9.483-12.57-14.336-19.509-18.234
		c-3.173-1.783-6.454-3.626-8.163-5.335c-1.708-1.708-3.552-4.989-5.334-8.163c-3.899-6.939-8.751-15.576-18.233-19.508
		c-9.181-3.808-18.569-1.226-26.114,0.85c-3.825,1.052-7.439,2.047-10.13,2.047c-2.69,0-6.304-0.995-10.13-2.047
		c-7.542-2.075-16.929-4.658-26.114-0.85c-9.483,3.933-14.336,12.57-18.234,19.509c-1.783,3.173-3.627,6.454-5.335,8.162
		c-1.708,1.708-4.989,3.552-8.163,5.335c-6.939,3.899-15.577,8.751-19.509,18.233c-3.809,9.184-1.226,18.572,0.85,26.114
		c1.052,3.825,2.047,7.439,2.047,10.13c0,2.691-0.995,6.305-2.047,10.131c-2.075,7.542-4.658,16.929-0.85,26.113
		c3.933,9.483,12.569,14.336,19.509,18.234c3.174,1.783,6.455,3.626,8.163,5.335c1.708,1.708,3.552,4.989,5.335,8.163
		c3.899,6.939,8.752,15.577,18.234,19.508c9.184,3.808,18.571,1.225,26.114-0.85c3.825-1.052,7.439-2.047,10.13-2.047
		c2.69,0,6.305,0.995,10.131,2.047c4.729,1.301,10.183,2.801,15.857,2.801c3.377,0,6.831-0.531,10.256-1.952
		c9.484-3.933,14.336-12.569,18.234-19.509c1.783-3.174,3.626-6.455,5.335-8.163c1.708-1.708,4.988-3.552,8.162-5.334
		C330.916,312.852,339.552,307.999,343.485,298.516z M320.119,278.598c1.067,3.881,2.53,9.197,1.794,10.974
		c-0.84,2.022-5.572,4.682-9.375,6.819c-4.338,2.437-9.256,5.201-13.237,9.18c-3.981,3.982-6.743,8.899-9.181,13.238
		c-2.137,3.803-4.796,8.537-6.82,9.375c-1.771,0.739-7.09-0.725-10.971-1.794c-4.914-1.352-10.482-2.884-16.326-2.884
		c-5.844,0-11.413,1.532-16.325,2.883c-3.881,1.068-9.195,2.531-10.974,1.795c-2.022-0.838-4.682-5.572-6.819-9.375
		c-2.437-4.339-5.201-9.256-9.181-13.238c-3.982-3.981-8.899-6.743-13.238-9.181c-3.803-2.137-8.537-4.796-9.375-6.819
		c-0.736-1.776,0.726-7.091,1.795-10.973c1.351-4.912,2.883-10.481,2.883-16.325s-1.532-11.413-2.884-16.325
		c-1.068-3.881-2.53-9.197-1.794-10.973c0.84-2.024,5.572-4.682,9.375-6.819c4.339-2.438,9.257-5.201,13.238-9.183
		c3.981-3.981,6.743-8.899,9.18-13.237c2.137-3.803,4.797-8.537,6.82-9.376c1.777-0.732,7.091,0.726,10.973,1.795
		c4.912,1.351,10.481,2.883,16.325,2.883c5.844,0,11.413-1.532,16.325-2.883c3.881-1.068,9.198-2.534,10.973-1.795
		c2.022,0.838,4.682,5.571,6.819,9.374c2.438,4.339,5.201,9.257,9.181,13.238c3.981,3.981,8.899,6.743,13.238,9.181
		c3.803,2.137,8.537,4.796,9.375,6.82c0.737,1.776-0.726,7.091-1.794,10.973c-1.352,4.912-2.884,10.481-2.884,16.325
		C317.234,268.117,318.768,273.686,320.119,278.598z"/>
	<path style="fill:#333333;" d="M143.994,157.159h50.901c6.449,0,11.677-5.228,11.677-11.677v-14.16
		c0-6.449-5.228-11.677-11.677-11.677s-11.677,5.228-11.677,11.677v2.484h-27.548V43.68c0-6.449-5.228-11.677-11.677-11.677
		s-11.677,5.228-11.677,11.677v101.802C132.317,151.931,137.545,157.159,143.994,157.159z"/>
	<path style="fill:#333333;" d="M348.77,157.159c20.472,0,37.127-16.656,37.127-37.127c0-6.449-5.229-11.677-11.677-11.677
		c-6.448,0-11.677,5.228-11.677,11.677c0,7.595-6.179,13.774-13.774,13.774s-13.774-6.179-13.774-13.774V69.13
		c0-7.595,6.179-13.774,13.774-13.774s13.774,6.179,13.774,13.774c0,6.449,5.229,11.677,11.677,11.677
		c6.448,0,11.677-5.228,11.677-11.677c0-20.472-16.656-37.127-37.127-37.127s-37.127,16.656-37.127,37.127v50.901
		C311.643,140.503,328.298,157.159,348.77,157.159z"/>
	<path style="fill:#333333;" d="M43.135,96.938v48.542c0,6.449,5.228,11.677,11.677,11.677h20.834
		c23.017,0,41.744-18.727,41.744-41.744c0-13.106-6.073-24.822-15.55-32.481c3.615-5.239,5.734-11.588,5.734-18.42
		c0-17.926-14.584-32.51-32.51-32.51H54.812c-6.449,0-11.677,5.228-11.677,11.677v30.075C37.352,74.45,32.87,79.374,32.87,85.346
		C32.87,91.317,37.353,96.241,43.135,96.938z M66.488,55.356h8.575c5.049,0,9.157,4.108,9.157,9.157
		c0,5.049-4.108,9.157-9.157,9.157h-8.575V55.356z M66.488,97.024h9.157c10.141,0,18.391,8.25,18.391,18.391
		s-8.25,18.391-18.391,18.391h-9.157C66.488,133.805,66.488,97.024,66.488,97.024z"/>
	<path style="fill:#333333;" d="M230.563,156.499c6.449,0,11.677-5.228,11.677-11.677v-22.251h26.889v22.251
		c0,6.449,5.229,11.677,11.677,11.677c6.448,0,11.677-5.228,11.677-11.677V69.46c0-20.289-16.509-36.798-36.798-36.798
		s-36.798,16.507-36.798,36.798v75.364C218.886,151.271,224.114,156.499,230.563,156.499z M255.684,56.015
		c7.414,0,13.445,6.031,13.445,13.445v29.759H242.24V69.46C242.24,62.046,248.271,56.015,255.684,56.015z"/>
	<path style="fill:#333333;" d="M415.595,157.159c6.448,0,11.677-5.228,11.677-11.677v-23.078l32.001,31.412
		c2.273,2.231,5.227,3.343,8.178,3.343c3.025,0,6.049-1.168,8.335-3.497c4.517-4.602,4.449-11.995-0.154-16.513l-44.234-43.418
		L466.4,51.087c4.092-4.985,3.368-12.342-1.617-16.434c-4.985-4.093-12.344-3.366-16.434,1.617L427.271,61.95V43.68
		c0-6.449-5.229-11.677-11.677-11.677c-6.448,0-11.677,5.228-11.677,11.677v101.802
		C403.918,151.931,409.147,157.159,415.595,157.159z"/>
	<path style="fill:#333333;" d="M100.074,367.385H56.09c-6.449,0-11.677,5.228-11.677,11.677v87.967
		c0,6.449,5.228,11.677,11.677,11.677s11.677-5.228,11.677-11.677v-26.856h13.321c6.449,0,11.677-5.228,11.677-11.677
		c0-6.449-5.228-11.677-11.677-11.677H67.767v-26.08h20.63v0.559c0,6.449,5.228,11.677,11.677,11.677s11.677-5.228,11.677-11.677
		v-12.236C111.751,372.613,106.523,367.385,100.074,367.385z"/>
	<path style="fill:#333333;" d="M214.785,367.385c-6.449,0-11.677,5.228-11.677,11.677v87.967c0,6.449,5.228,11.677,11.677,11.677
		s11.677-5.228,11.677-11.677v-87.967C226.462,372.613,221.234,367.385,214.785,367.385z"/>
	<path style="fill:#333333;" d="M478.875,371.168c-5.701-3.011-12.766-0.827-15.778,4.875l-20.033,37.949l-20.033-37.949
		c-3.011-5.702-10.075-7.886-15.778-4.875c-5.704,3.01-7.886,10.074-4.876,15.778l29.01,54.954v25.131
		c0,6.449,5.229,11.677,11.677,11.677c6.448,0,11.677-5.228,11.677-11.677v-25.131l29.01-54.954
		C486.762,381.241,484.58,374.178,478.875,371.168z"/>
	<path style="fill:#333333;" d="M265.71,367.385h-9.102c-6.449,0-11.677,5.228-11.677,11.677v87.967
		c0,6.449,5.228,11.677,11.677,11.677h9.102c25.672,0,46.559-20.886,46.559-46.559v-18.203
		C312.268,388.272,291.383,367.385,265.71,367.385z M288.915,432.148c0,11.925-9.041,21.778-20.63,23.063v-64.329
		c11.589,1.284,20.63,11.138,20.63,23.063V432.148z"/>
	<path style="fill:#333333;" d="M149.788,367.385h-11.952c-6.449,0-11.677,5.228-11.677,11.677v35.761
		c-5.093,1.256-8.87,5.856-8.87,11.337s3.776,10.081,8.87,11.337v29.532c0,6.449,5.228,11.677,11.677,11.677
		s11.677-5.228,11.677-11.677v-29.192h2.844c5.131,0,9.304,4.174,9.304,9.305v19.887c0,6.449,5.228,11.677,11.677,11.677
		s11.677-5.228,11.677-11.677v-19.887c0-8.363-3.16-16.002-8.348-21.785c5.206-6.142,8.348-14.083,8.348-22.745
		C185.013,383.188,169.211,367.385,149.788,367.385z M149.788,414.485h-0.276v-23.746h0.276c6.546,0,11.872,5.326,11.872,11.872
		S156.334,414.485,149.788,414.485z"/>
	<path style="fill:#333333;" d="M360.957,369.817c-18.408,0-33.384,14.977-33.384,33.384v65.121c0,6.449,5.229,11.677,11.677,11.677
		c6.448,0,11.677-5.228,11.677-11.677v-17.64h20.062v17.64c0,6.449,5.229,11.677,11.677,11.677c6.448,0,11.677-5.228,11.677-11.677
		V403.2C394.342,384.793,379.365,369.817,360.957,369.817z M350.928,427.329v-24.128c0-5.531,4.5-10.03,10.03-10.03
		c5.531,0,10.031,4.5,10.031,10.03v24.128H350.928z"/>
	<circle style="fill:#333333;" cx="277.719" cy="283.99" r="11.677"/>
	<circle style="fill:#333333;" cx="234.434" cy="240.705" r="11.677"/>
</g>
</svg>